<svg id="svg" version="1.1" xmlns="http://www.w3.org/2000/svg" xmlns:xlink="http://www.w3.org/1999/xlink" width="400" height="349.38453963564746" viewBox="0, 0, 400,349.38453963564746"><g id="svgg"><path id="path0" d="M198.031 10.517 C 192.995 12.114,190.837 17.396,193.230 22.270 C 195.083 26.043,195.408 27.481,195.391 31.826 C 195.375 35.969,195.019 38.816,194.187 41.457 C 193.983 42.107,193.760 42.994,193.692 43.427 C 193.624 43.860,193.406 44.613,193.207 45.101 C 193.008 45.588,192.782 46.342,192.703 46.775 C 192.625 47.208,192.389 47.905,192.179 48.322 C 191.969 48.740,191.683 49.630,191.542 50.301 C 191.402 50.972,191.136 51.812,190.952 52.168 C 190.768 52.524,190.499 53.362,190.355 54.030 C 190.211 54.697,189.943 55.593,189.760 56.019 C 189.577 56.445,189.306 57.332,189.158 57.988 C 189.009 58.645,188.710 59.670,188.493 60.266 C 188.275 60.862,188.095 61.684,188.091 62.094 C 188.088 62.504,187.950 63.162,187.784 63.558 C 187.619 63.953,187.357 65.036,187.203 65.964 C 187.048 66.892,186.829 67.961,186.715 68.339 C 186.602 68.718,186.509 69.488,186.509 70.050 C 186.509 70.612,186.411 71.322,186.291 71.627 C 185.481 73.688,185.475 86.000,186.282 88.331 C 186.395 88.656,186.582 89.586,186.699 90.399 C 186.843 91.410,187.157 92.377,187.694 93.467 C 188.650 95.405,188.654 95.274,187.642 95.267 C 184.409 95.243,180.810 96.037,179.158 97.138 C 178.597 97.512,177.873 97.977,177.548 98.172 C 176.965 98.523,174.925 100.518,173.027 102.596 L 172.051 103.664 146.537 103.681 C 119.757 103.699,119.913 103.704,119.462 102.833 C 119.069 102.072,114.377 97.669,113.485 97.225 C 113.082 97.024,112.418 96.633,112.009 96.356 C 111.600 96.079,110.847 95.738,110.335 95.597 C 109.823 95.456,109.005 95.206,108.518 95.042 C 105.713 94.095,102.052 93.932,99.975 94.661 C 99.555 94.808,98.958 94.929,98.648 94.929 C 98.338 94.929,97.264 95.138,96.260 95.394 C 94.252 95.907,91.861 96.431,90.793 96.591 C 90.414 96.648,89.527 96.830,88.823 96.997 C 88.119 97.163,87.233 97.346,86.854 97.403 C 86.475 97.461,85.677 97.630,85.081 97.780 C 84.485 97.929,83.466 98.157,82.816 98.285 C 82.166 98.413,81.192 98.631,80.650 98.769 C 80.108 98.908,78.956 99.170,78.090 99.353 C 77.223 99.536,76.160 99.774,75.726 99.883 C 75.293 99.992,74.484 100.154,73.930 100.242 C 73.375 100.330,72.754 100.488,72.551 100.593 C 72.348 100.697,71.795 100.842,71.323 100.914 C 70.852 100.986,70.214 101.176,69.905 101.335 C 69.597 101.494,69.165 101.625,68.945 101.625 C 68.585 101.625,67.754 101.915,64.993 103.005 C 64.505 103.198,63.442 103.593,62.629 103.884 C 61.817 104.174,60.709 104.616,60.167 104.865 C 59.626 105.114,58.695 105.541,58.099 105.814 C 55.718 106.906,55.193 107.180,53.947 107.980 C 50.549 110.164,46.158 114.463,45.624 116.129 C 45.525 116.438,45.332 116.824,45.197 116.987 C 44.845 117.408,44.116 118.894,44.116 119.191 C 44.116 119.328,43.947 119.886,43.741 120.429 C 43.160 121.961,42.683 123.676,42.506 124.865 C 42.170 127.127,41.917 129.347,41.838 130.739 L 41.757 132.182 40.087 134.087 C 37.460 137.084,37.098 137.529,36.777 138.159 C 36.611 138.484,36.178 139.203,35.815 139.756 C 34.954 141.070,34.617 141.663,33.252 144.264 C 31.101 148.362,28.803 153.156,26.690 157.952 C 26.284 158.872,25.791 159.980,25.594 160.414 C 25.198 161.286,24.734 162.511,24.289 163.860 C 24.128 164.348,23.838 165.145,23.645 165.633 C 23.158 166.861,22.846 167.747,22.537 168.784 C 22.215 169.864,21.422 172.244,20.600 174.594 C 20.411 175.135,20.139 176.066,19.997 176.662 C 19.854 177.258,19.517 178.498,19.246 179.419 C 18.976 180.340,18.711 181.359,18.657 181.684 C 18.602 182.009,18.460 182.541,18.340 182.866 C 18.220 183.191,17.624 185.451,17.016 187.888 C 15.413 194.309,15.346 194.585,15.122 195.667 C 15.010 196.209,14.796 196.986,14.648 197.394 C 14.499 197.803,14.377 198.363,14.377 198.638 C 14.377 198.914,14.293 199.298,14.189 199.491 C 14.086 199.684,13.908 200.365,13.793 201.004 C 13.679 201.643,13.451 202.742,13.287 203.447 C 12.879 205.195,12.392 207.498,12.204 208.567 C 12.118 209.055,11.905 210.207,11.730 211.128 C 10.872 215.631,9.989 223.098,9.283 231.807 C 8.696 239.052,8.945 249.559,9.836 255.145 C 9.940 255.795,10.113 256.903,10.222 257.607 C 10.756 261.080,11.276 263.555,12.538 268.636 C 12.915 270.151,15.442 277.928,15.835 278.779 C 16.169 279.502,16.858 281.359,17.041 282.029 C 17.115 282.299,17.335 282.875,17.530 283.309 C 17.725 283.742,18.105 284.584,18.375 285.180 C 18.644 285.775,18.974 286.617,19.108 287.051 C 19.242 287.484,19.418 287.927,19.497 288.035 C 19.577 288.144,19.794 288.697,19.979 289.264 C 20.164 289.831,20.398 290.346,20.498 290.408 C 20.598 290.470,20.679 290.656,20.679 290.821 C 20.679 291.137,21.543 293.257,22.360 294.948 C 22.627 295.501,22.846 296.023,22.846 296.108 C 22.846 296.194,23.014 296.628,23.219 297.073 C 23.728 298.176,24.635 300.161,25.389 301.822 C 25.733 302.580,26.160 303.466,26.336 303.791 C 26.513 304.116,26.826 304.737,27.032 305.170 C 27.239 305.603,27.537 306.179,27.694 306.450 C 27.852 306.721,28.189 307.396,28.444 307.951 C 28.699 308.506,28.999 309.017,29.112 309.086 C 29.224 309.156,29.424 309.544,29.555 309.949 C 29.686 310.353,29.975 310.943,30.197 311.259 C 30.591 311.820,30.828 312.233,31.977 314.365 C 32.287 314.940,32.668 315.555,32.823 315.732 C 33.116 316.066,33.755 317.187,34.459 318.603 C 34.685 319.058,35.077 319.679,35.330 319.981 C 35.583 320.284,35.857 320.753,35.939 321.024 C 36.020 321.295,36.285 321.782,36.526 322.107 C 36.768 322.432,37.120 323.026,37.308 323.426 C 37.841 324.555,40.460 326.771,42.060 327.446 C 44.579 328.508,47.931 327.156,48.948 324.668 C 49.125 324.234,49.472 323.437,49.719 322.895 C 49.966 322.354,50.248 321.705,50.346 321.454 C 50.514 321.025,50.645 321.131,52.490 323.177 C 53.571 324.375,54.512 325.356,54.580 325.356 C 54.649 325.357,55.136 325.760,55.664 326.253 C 56.191 326.746,56.977 327.332,57.410 327.556 C 57.843 327.779,58.376 328.125,58.595 328.324 C 59.700 329.334,62.360 329.684,63.873 329.019 C 65.697 328.218,66.751 326.707,67.459 323.880 L 67.804 322.501 67.184 320.138 C 66.844 318.838,66.430 317.287,66.264 316.691 C 65.824 315.102,65.382 313.085,65.459 313.009 C 65.550 312.917,66.568 314.404,66.570 314.634 C 66.571 314.736,66.881 315.209,67.259 315.685 C 67.637 316.161,67.947 316.648,67.948 316.768 C 67.948 316.888,68.171 317.253,68.443 317.578 C 68.715 317.903,69.067 318.464,69.227 318.826 C 69.386 319.187,69.784 319.821,70.110 320.233 C 70.437 320.645,70.704 321.060,70.704 321.155 C 70.704 321.249,71.036 321.737,71.443 322.237 C 71.849 322.738,72.335 323.401,72.523 323.711 C 73.019 324.526,74.890 326.848,76.711 328.906 C 78.207 330.597,81.065 333.235,81.401 333.235 C 81.541 333.235,82.082 333.505,82.603 333.835 C 85.357 335.582,87.519 335.277,90.512 332.721 C 92.753 330.808,93.000 329.436,92.196 323.387 C 91.800 320.414,91.777 320.012,91.701 315.017 C 91.628 310.217,91.993 303.982,92.542 300.640 C 93.429 295.238,94.479 291.019,95.826 287.445 C 96.673 285.197,96.796 284.917,97.250 284.195 C 97.489 283.816,97.685 283.442,97.685 283.365 C 97.688 282.797,100.182 279.562,101.711 278.141 C 104.381 275.661,113.300 270.803,115.181 270.803 C 115.322 270.803,115.852 270.640,116.359 270.441 C 119.571 269.180,126.326 267.515,131.659 266.668 C 132.201 266.582,133.885 266.272,135.401 265.979 C 136.918 265.686,138.602 265.373,139.143 265.283 C 140.220 265.104,142.906 264.602,144.461 264.288 C 145.002 264.179,145.800 264.048,146.233 263.997 C 146.667 263.946,147.198 263.851,147.415 263.787 C 147.632 263.723,148.296 263.598,148.892 263.511 C 149.488 263.424,150.596 263.249,151.354 263.123 C 152.112 262.997,153.176 262.823,153.717 262.736 C 154.259 262.650,155.455 262.447,156.376 262.284 C 157.297 262.122,158.443 261.974,158.922 261.955 C 159.402 261.935,159.866 261.876,159.953 261.822 C 160.100 261.731,160.746 261.660,163.466 261.439 C 164.062 261.390,165.170 261.300,165.928 261.238 C 171.266 260.803,174.653 260.691,182.275 260.696 C 190.735 260.702,206.403 260.969,214.476 261.245 C 216.371 261.310,219.119 261.403,220.581 261.452 C 225.356 261.613,231.537 261.875,234.072 262.024 C 234.938 262.075,236.711 262.176,238.011 262.248 C 240.584 262.392,241.342 262.442,243.722 262.631 C 245.955 262.807,247.046 262.888,248.827 263.010 C 249.685 263.068,250.527 263.158,250.698 263.209 C 250.869 263.259,252.073 263.395,253.373 263.509 C 254.673 263.623,256.179 263.757,256.721 263.805 C 258.039 263.922,268.547 265.609,270.409 266.002 C 271.870 266.310,273.602 266.712,274.938 267.051 C 275.726 267.252,277.305 267.794,278.218 268.178 C 278.559 268.322,278.914 268.442,279.006 268.445 C 279.098 268.449,279.702 268.715,280.349 269.036 C 280.997 269.358,281.664 269.621,281.832 269.621 C 282.000 269.621,282.313 269.742,282.526 269.890 C 282.740 270.038,283.136 270.226,283.407 270.307 C 283.678 270.389,284.431 270.703,285.081 271.005 C 285.731 271.307,286.883 271.839,287.642 272.188 C 288.400 272.538,289.153 272.934,289.316 273.070 C 289.478 273.205,289.833 273.384,290.103 273.466 C 290.374 273.548,290.817 273.787,291.088 273.996 C 291.359 274.206,292.179 274.761,292.911 275.231 C 295.778 277.068,298.670 280.308,299.417 282.521 C 299.527 282.846,299.769 283.333,299.955 283.604 C 300.141 283.875,300.359 284.318,300.440 284.589 C 300.520 284.860,300.741 285.347,300.931 285.672 C 301.120 285.997,301.412 286.706,301.579 287.248 C 302.495 290.213,303.542 294.303,303.771 295.815 C 303.829 296.194,304.022 297.125,304.201 297.883 C 304.379 298.641,304.595 299.705,304.679 300.246 C 304.763 300.788,304.925 301.718,305.039 302.314 C 305.765 306.115,306.159 308.776,306.087 309.386 C 306.057 309.646,306.124 310.267,306.238 310.764 C 306.976 314.008,306.905 328.114,306.138 330.435 C 304.607 335.069,309.663 339.987,313.934 338.020 C 314.855 337.596,315.330 337.183,316.987 335.368 C 317.528 334.775,318.725 333.466,319.645 332.459 C 320.566 331.452,321.400 330.483,321.498 330.307 C 321.595 330.130,321.994 329.619,322.384 329.172 C 322.773 328.725,323.447 327.859,323.880 327.248 C 325.665 324.732,325.570 324.786,325.918 326.096 C 326.152 326.972,327.479 328.919,328.407 329.748 C 330.092 331.252,333.164 331.281,335.095 329.811 C 335.426 329.559,336.051 329.160,336.484 328.925 C 336.918 328.689,337.746 328.239,338.325 327.925 C 338.903 327.611,339.524 327.226,339.703 327.069 C 339.883 326.912,340.298 326.647,340.625 326.482 C 340.953 326.316,341.569 325.862,341.993 325.473 C 342.418 325.084,342.821 324.766,342.889 324.766 C 342.956 324.766,343.623 324.190,344.370 323.486 C 345.983 321.965,346.044 321.949,345.801 323.087 C 344.745 328.039,352.174 332.654,355.423 329.064 C 355.618 328.849,356.045 328.560,356.372 328.422 C 356.699 328.285,357.246 327.916,357.586 327.602 C 357.927 327.288,358.414 326.906,358.669 326.753 C 360.659 325.560,367.824 318.215,369.542 315.608 C 369.827 315.175,370.394 314.361,370.801 313.799 C 371.469 312.876,372.426 311.512,373.541 309.892 C 373.763 309.570,374.283 308.774,374.698 308.124 C 375.112 307.474,375.689 306.588,375.981 306.155 C 376.272 305.721,376.722 304.984,376.980 304.515 C 377.631 303.334,378.353 302.121,378.881 301.319 C 379.127 300.945,379.383 300.419,379.450 300.148 C 379.516 299.877,379.679 299.522,379.812 299.360 C 380.149 298.947,381.684 295.818,381.684 295.543 C 381.684 295.419,381.871 294.968,382.099 294.543 C 382.327 294.117,382.633 293.409,382.778 292.970 C 382.923 292.531,383.320 291.418,383.659 290.497 C 383.998 289.577,384.364 288.513,384.473 288.134 C 385.425 284.823,385.820 283.153,385.820 282.436 C 385.820 282.136,385.909 281.633,386.019 281.319 C 386.128 281.005,386.304 280.128,386.409 279.370 C 386.686 277.376,387.222 273.018,387.317 271.984 C 387.362 271.497,387.499 270.345,387.621 269.424 C 387.742 268.503,387.872 267.351,387.908 266.864 C 387.972 265.982,388.088 264.527,388.293 261.989 C 388.504 259.390,388.584 258.067,388.682 255.539 C 388.816 252.095,388.816 243.880,388.682 242.048 C 388.540 240.111,388.399 238.289,388.278 236.829 C 388.224 236.179,388.137 235.071,388.085 234.367 C 387.902 231.921,387.841 231.306,387.624 229.739 C 387.504 228.872,387.317 227.366,387.208 226.391 C 386.993 224.459,386.702 222.611,386.372 221.073 C 386.256 220.532,386.091 219.645,386.006 219.104 C 385.571 216.336,385.411 215.436,385.114 214.082 C 384.936 213.269,384.724 212.161,384.643 211.620 C 384.562 211.078,384.347 209.882,384.167 208.961 C 383.986 208.040,383.708 206.622,383.549 205.810 C 383.390 204.998,383.069 203.402,382.836 202.265 C 382.603 201.128,382.348 199.842,382.271 199.409 C 382.193 198.976,382.033 198.223,381.915 197.735 C 381.797 197.248,381.470 195.785,381.188 194.485 C 380.907 193.186,380.514 191.546,380.317 190.842 C 380.119 190.138,379.865 189.207,379.751 188.774 C 379.331 187.168,378.337 184.105,377.609 182.176 C 377.344 181.472,376.947 180.409,376.728 179.813 C 376.508 179.217,376.160 178.375,375.953 177.942 C 375.747 177.509,375.578 177.080,375.578 176.990 C 375.578 176.900,375.308 176.191,374.978 175.415 C 374.648 174.638,374.195 173.560,373.972 173.018 C 373.748 172.477,373.357 171.546,373.103 170.950 C 372.656 169.903,371.855 167.969,371.022 165.928 C 370.801 165.387,370.414 164.500,370.162 163.959 C 369.909 163.417,369.476 162.464,369.198 161.840 C 368.920 161.216,368.478 160.241,368.216 159.673 C 367.954 159.106,367.463 157.976,367.125 157.164 C 366.437 155.507,366.202 154.995,364.778 152.022 C 364.227 150.873,363.593 149.441,363.368 148.839 C 363.143 148.238,362.829 147.639,362.671 147.507 C 362.513 147.376,362.383 147.136,362.383 146.974 C 362.383 146.813,362.168 146.270,361.905 145.768 C 361.642 145.266,361.245 144.456,361.023 143.968 C 360.802 143.481,360.539 142.949,360.440 142.787 C 360.036 142.125,356.843 135.457,356.007 133.530 C 354.993 131.194,354.870 130.766,354.798 129.331 C 354.582 125.049,353.728 120.486,352.826 118.791 C 352.558 118.288,352.338 117.742,352.338 117.579 C 352.337 117.214,351.765 116.272,351.135 115.597 C 350.876 115.321,350.414 114.730,350.107 114.284 C 349.801 113.838,349.180 113.224,348.729 112.920 C 348.277 112.615,347.529 112.041,347.066 111.644 C 346.603 111.247,345.997 110.865,345.720 110.795 C 345.443 110.726,344.892 110.458,344.494 110.200 C 344.097 109.942,343.373 109.620,342.885 109.484 C 342.398 109.348,341.910 109.175,341.802 109.100 C 341.694 109.025,341.251 108.855,340.817 108.724 C 340.384 108.592,339.586 108.321,339.045 108.122 C 338.102 107.774,336.933 107.409,333.924 106.521 C 333.166 106.297,332.147 105.990,331.659 105.838 C 331.172 105.686,330.591 105.562,330.369 105.563 C 330.147 105.563,329.880 105.479,329.776 105.374 C 329.672 105.270,328.125 104.825,326.339 104.384 C 321.681 103.236,320.824 103.041,319.941 102.927 C 319.508 102.871,318.533 102.679,317.774 102.499 C 317.016 102.320,315.908 102.099,315.313 102.008 C 314.302 101.854,313.208 101.615,310.290 100.911 C 309.641 100.755,308.621 100.548,308.026 100.452 C 305.723 100.081,302.400 99.458,302.118 99.343 C 301.955 99.277,301.290 99.147,300.640 99.055 C 299.572 98.904,296.978 98.404,294.633 97.899 C 294.146 97.794,292.994 97.567,292.073 97.395 C 291.152 97.223,290.021 96.997,289.559 96.892 C 288.260 96.597,284.396 96.660,282.980 97.001 C 280.621 97.567,280.334 97.679,279.558 98.342 C 279.129 98.708,278.509 99.145,278.179 99.315 C 277.849 99.485,276.875 100.422,276.013 101.397 C 273.797 103.904,276.927 103.657,247.234 103.676 L 221.400 103.693 220.989 102.708 C 220.327 101.123,215.991 96.989,214.405 96.430 C 212.574 95.785,210.794 95.518,208.321 95.519 C 206.062 95.519,205.810 95.485,205.806 95.175 C 205.800 94.721,205.086 93.160,204.679 92.710 C 204.503 92.515,204.198 91.724,204.002 90.953 C 203.806 90.182,203.390 89.144,203.076 88.646 C 201.852 86.701,201.168 79.307,201.859 75.496 C 201.975 74.855,202.067 74.114,202.064 73.847 C 202.057 73.342,202.512 70.853,202.891 69.325 C 203.011 68.838,203.177 67.996,203.258 67.454 C 203.339 66.913,203.592 65.908,203.820 65.221 C 204.048 64.535,204.235 63.826,204.235 63.646 C 204.236 63.466,204.455 62.787,204.723 62.137 C 204.991 61.487,205.212 60.664,205.214 60.308 C 205.217 59.952,205.351 59.459,205.513 59.212 C 205.675 58.965,205.984 58.104,206.201 57.299 C 206.417 56.494,206.814 55.214,207.083 54.456 C 207.352 53.698,207.575 52.895,207.577 52.671 C 207.580 52.448,207.751 51.916,207.957 51.489 C 208.164 51.062,208.429 50.192,208.547 49.554 C 208.664 48.917,208.838 48.296,208.931 48.176 C 209.230 47.792,209.749 46.038,209.749 45.411 C 209.749 45.078,209.931 44.327,210.153 43.743 C 210.375 43.158,210.606 42.095,210.667 41.380 C 210.727 40.664,210.905 39.619,211.061 39.056 C 211.218 38.493,211.351 37.430,211.356 36.693 C 211.362 35.955,211.393 33.845,211.425 32.004 C 211.466 29.658,211.401 28.284,211.207 27.413 C 211.055 26.729,210.931 25.725,210.931 25.183 C 210.931 24.640,210.720 23.559,210.462 22.782 C 210.205 22.005,209.937 20.969,209.867 20.481 C 209.738 19.587,208.953 17.684,208.485 17.135 C 208.347 16.972,208.116 16.406,207.973 15.876 C 206.913 11.954,201.945 9.276,198.031 10.517 M106.827 105.330 C 108.280 106.010,110.606 108.090,112.161 110.100 C 113.066 111.269,114.396 112.120,115.676 112.347 C 116.093 112.421,116.785 112.737,117.215 113.048 C 117.645 113.359,118.098 113.648,118.222 113.689 C 118.522 113.789,117.607 115.647,116.561 117.058 C 115.532 118.448,114.936 118.682,111.742 118.949 C 110.348 119.066,108.676 119.242,108.026 119.341 C 107.376 119.440,106.046 119.621,105.071 119.743 C 102.627 120.050,100.627 120.413,95.323 121.512 C 93.678 121.853,90.897 122.521,89.933 122.807 C 89.406 122.964,88.869 123.092,88.740 123.092 C 87.066 123.092,75.081 128.315,72.179 130.309 C 71.855 130.531,71.201 130.970,70.726 131.284 C 68.832 132.536,68.366 132.872,67.465 133.629 C 66.950 134.062,65.939 135.003,65.219 135.720 C 64.083 136.850,63.362 137.677,61.328 140.181 C 60.699 140.956,60.108 140.591,57.122 137.583 C 54.226 134.665,53.245 133.410,53.051 132.374 C 52.978 131.988,52.748 131.286,52.539 130.813 C 51.519 128.508,53.537 121.935,56.030 119.443 C 59.438 116.035,67.503 112.377,76.022 110.377 C 79.323 109.601,79.587 109.541,81.142 109.209 C 81.955 109.036,82.940 108.810,83.332 108.706 C 83.725 108.602,84.478 108.432,85.006 108.328 C 85.535 108.224,86.588 108.001,87.346 107.833 C 89.229 107.416,93.452 106.537,94.535 106.337 C 95.550 106.150,97.286 105.767,100.246 105.077 C 103.139 104.403,104.999 104.474,106.827 105.330 M289.724 107.416 C 293.025 108.055,292.894 108.029,295.126 108.479 C 296.209 108.698,298.336 109.106,299.852 109.387 C 301.369 109.667,303.053 109.986,303.594 110.096 C 306.052 110.592,308.791 111.135,309.601 111.287 C 310.089 111.378,311.108 111.590,311.866 111.757 C 313.067 112.023,315.985 112.620,317.479 112.906 C 321.478 113.672,325.243 114.582,327.425 115.311 C 327.858 115.456,328.922 115.766,329.788 116.001 C 342.706 119.496,343.705 120.424,344.527 129.690 C 344.686 131.482,344.941 133.160,345.117 133.581 C 345.424 134.315,345.422 134.324,344.895 134.659 C 344.602 134.844,344.052 135.227,343.673 135.509 C 343.294 135.790,342.496 136.385,341.901 136.829 C 339.933 138.296,338.528 139.046,337.776 139.029 C 337.067 139.014,336.715 138.821,334.023 136.977 C 332.620 136.016,331.596 135.324,330.650 134.698 C 329.798 134.134,328.031 133.090,326.933 132.501 C 323.890 130.870,323.211 130.525,322.304 130.154 C 317.070 128.008,313.486 126.771,307.829 125.158 C 307.341 125.019,306.100 124.663,305.071 124.366 C 304.042 124.070,302.890 123.760,302.511 123.678 C 302.132 123.595,301.113 123.335,300.246 123.099 C 297.876 122.454,294.571 121.785,289.427 120.908 C 284.175 120.012,281.895 117.679,281.136 112.421 C 280.988 111.398,281.100 111.195,283.108 108.834 C 284.897 106.731,285.508 106.600,289.724 107.416 M270.724 114.004 C 271.320 114.032,271.343 114.068,271.675 115.559 C 271.862 116.398,272.185 117.518,272.394 118.047 C 272.602 118.576,272.772 119.118,272.772 119.252 C 272.772 119.386,273.256 120.463,273.848 121.646 C 276.209 126.366,281.115 129.467,288.134 130.675 C 289.163 130.852,290.404 131.072,290.891 131.165 C 291.379 131.258,292.354 131.441,293.058 131.572 C 297.965 132.484,308.370 135.420,313.836 137.435 C 320.210 139.785,322.234 140.874,329.690 145.965 C 333.441 148.526,337.191 149.636,339.695 148.925 C 342.784 148.049,344.331 147.256,347.352 145.002 C 348.405 144.217,349.332 143.641,349.412 143.722 C 349.619 143.933,352.094 149.002,354.100 153.323 C 354.757 154.739,355.009 155.281,356.559 158.597 C 357.054 159.657,357.459 160.577,357.459 160.642 C 357.459 160.708,358.042 162.057,358.755 163.640 C 360.599 167.738,360.568 167.667,362.198 171.541 C 362.540 172.354,362.936 173.284,363.077 173.609 C 364.656 177.246,365.611 179.528,366.123 180.896 C 366.367 181.546,366.727 182.477,366.923 182.964 C 367.119 183.452,367.517 184.515,367.807 185.327 C 368.098 186.140,368.455 187.115,368.601 187.494 C 369.266 189.219,370.459 193.541,371.156 196.750 C 371.333 197.563,371.598 198.759,371.746 199.409 C 371.894 200.059,372.241 201.743,372.517 203.151 C 372.792 204.559,373.101 206.066,373.202 206.499 C 373.303 206.933,373.487 207.863,373.610 208.567 C 373.734 209.271,373.955 210.423,374.101 211.128 C 374.248 211.832,374.463 212.939,374.579 213.589 C 374.694 214.239,374.918 215.436,375.076 216.248 C 375.543 218.646,376.259 222.707,376.570 224.717 C 378.821 239.261,379.109 255.579,377.346 268.735 C 377.244 269.493,376.976 271.664,376.750 273.560 C 375.812 281.417,375.163 284.154,372.826 290.103 C 371.550 293.352,368.408 299.018,365.347 303.594 C 362.921 307.219,362.706 307.531,362.223 308.120 L 361.742 308.706 361.838 307.923 C 361.925 307.212,362.161 305.995,363.080 301.513 C 364.401 295.068,356.089 290.836,353.190 296.477 C 353.015 296.817,352.703 297.317,352.495 297.587 C 352.288 297.858,351.450 299.099,350.633 300.345 C 349.310 302.361,348.281 303.771,346.332 306.238 C 346.007 306.650,345.475 307.331,345.150 307.752 C 342.861 310.718,339.302 314.552,339.061 314.311 C 339.009 314.259,339.043 313.865,339.137 313.435 C 339.994 309.504,340.264 302.860,339.739 298.621 C 339.177 294.093,339.068 293.499,338.640 292.649 C 337.973 291.323,336.020 289.595,334.770 289.223 C 331.253 288.179,329.118 289.955,327.201 295.519 C 326.940 296.278,326.242 298.316,325.651 300.049 C 324.074 304.673,323.906 305.132,322.789 307.829 C 322.228 309.183,321.608 310.689,321.411 311.177 C 320.221 314.124,317.521 318.861,317.117 318.711 C 317.045 318.685,316.969 317.854,316.948 316.865 C 316.898 314.541,316.341 307.456,316.098 306.056 C 315.995 305.460,315.774 304.131,315.607 303.102 C 312.986 286.907,310.437 279.563,304.833 272.051 C 302.414 268.810,295.482 264.236,288.528 261.293 C 279.751 257.579,276.932 256.699,269.719 255.423 C 269.069 255.308,268.139 255.139,267.651 255.048 C 266.773 254.884,265.472 254.688,262.432 254.262 C 261.566 254.141,260.369 253.963,259.774 253.867 C 259.178 253.772,258.159 253.643,257.509 253.582 C 256.859 253.521,255.130 253.341,253.668 253.182 C 245.477 252.292,230.068 251.408,215.953 251.018 C 213.786 250.959,210.507 250.866,208.666 250.812 C 176.839 249.888,165.184 250.315,149.581 252.979 C 146.657 253.479,143.732 253.978,143.082 254.089 C 142.432 254.200,141.457 254.366,140.916 254.457 C 140.374 254.549,139.045 254.799,137.962 255.015 C 135.311 255.541,130.771 256.385,129.197 256.644 C 128.493 256.760,127.563 256.930,127.129 257.022 C 126.696 257.114,125.633 257.337,124.766 257.517 C 120.023 258.501,114.542 260.044,110.881 261.427 C 110.177 261.693,108.983 262.144,108.227 262.430 C 107.471 262.716,106.760 263.027,106.647 263.121 C 106.534 263.215,105.787 263.474,104.988 263.695 C 104.189 263.916,103.382 264.210,103.196 264.348 C 103.009 264.486,102.469 264.891,101.994 265.249 C 101.520 265.607,100.287 266.448,99.253 267.120 C 91.249 272.321,87.150 278.834,83.800 291.679 C 83.517 292.763,82.749 296.862,82.342 299.458 C 81.846 302.618,81.342 310.184,81.329 314.646 C 81.320 317.757,81.288 318.076,81.011 317.846 C 80.713 317.598,78.372 314.098,76.618 311.275 C 76.147 310.517,75.568 309.586,75.331 309.207 C 73.790 306.740,73.019 305.344,69.725 299.065 C 69.157 297.981,68.527 296.785,68.326 296.406 C 68.125 296.027,67.036 293.804,65.907 291.467 C 63.190 285.841,62.655 285.366,59.061 285.385 C 54.904 285.407,52.507 288.212,53.143 292.310 C 53.265 293.100,53.410 295.785,53.464 298.277 C 53.555 302.428,53.680 304.264,54.138 308.124 C 54.331 309.755,54.270 309.894,53.701 309.111 C 53.466 308.788,52.887 308.123,52.414 307.634 C 51.564 306.755,49.987 304.868,48.641 303.118 C 47.510 301.650,46.753 300.461,45.684 298.479 C 44.150 295.633,42.786 294.633,40.439 294.633 C 38.538 294.633,36.504 296.122,36.003 297.883 C 35.636 299.169,35.515 299.108,34.597 297.172 C 33.826 295.547,33.315 294.390,31.216 289.513 C 30.960 288.917,30.424 287.632,30.026 286.657 C 29.627 285.682,29.081 284.353,28.811 283.703 C 28.116 282.029,27.598 280.734,27.076 279.370 C 26.828 278.720,26.387 277.568,26.097 276.809 C 25.267 274.642,24.023 271.184,23.725 270.212 C 23.087 268.137,22.029 264.307,21.766 263.122 C 21.609 262.418,21.351 261.249,21.192 260.526 C 20.935 259.356,20.462 256.500,19.894 252.683 C 18.913 246.090,19.071 234.694,20.288 224.225 C 20.807 219.764,21.312 216.074,21.663 214.180 C 21.784 213.530,21.955 212.555,22.044 212.014 C 22.487 209.305,23.294 205.850,23.925 203.963 C 24.313 202.806,24.714 201.219,24.817 200.437 C 25.147 197.924,25.358 196.930,26.497 192.516 C 27.112 190.133,27.685 187.873,27.769 187.494 C 28.444 184.478,30.330 177.847,31.522 174.298 C 33.733 167.719,34.805 164.927,36.946 160.179 C 38.745 156.190,42.465 148.675,43.481 146.977 C 43.884 146.302,44.552 145.189,44.964 144.504 C 45.377 143.818,46.042 142.876,46.443 142.410 L 47.172 141.564 50.125 144.558 C 51.891 146.349,53.493 147.789,54.111 148.142 C 54.680 148.467,55.196 148.815,55.259 148.916 C 55.321 149.018,56.230 149.516,57.277 150.024 L 59.183 150.949 61.645 150.954 C 64.807 150.960,65.844 150.534,67.287 148.634 C 70.594 144.282,71.530 143.197,73.331 141.636 C 76.946 138.502,84.149 134.765,89.906 133.038 C 93.854 131.854,99.750 130.556,105.465 129.612 C 106.115 129.505,108.419 129.233,110.586 129.009 C 116.962 128.348,118.069 128.130,119.547 127.241 C 120.034 126.948,120.762 126.541,121.163 126.337 C 121.979 125.922,124.227 123.537,124.899 122.373 C 125.139 121.956,125.528 121.349,125.763 121.024 C 126.177 120.449,127.819 117.001,127.819 116.704 C 127.819 116.622,127.999 115.962,128.219 115.237 L 128.620 113.919 199.366 113.947 C 238.277 113.963,270.388 113.988,270.724 114.004 M182.226 128.232 C 178.954 128.524,177.853 128.996,175.185 131.251 C 174.210 132.076,172.242 133.725,170.811 134.917 L 168.210 137.083 165.812 136.282 C 159.000 134.004,156.328 134.022,149.809 136.386 C 147.377 137.268,146.529 137.853,146.529 138.648 C 146.529 138.852,146.262 139.208,145.935 139.441 C 144.818 140.236,144.659 140.803,144.665 143.968 C 144.675 149.677,147.327 154.289,154.936 161.837 L 156.967 163.852 156.964 170.503 C 156.961 178.194,157.207 177.329,154.658 178.606 C 152.446 179.714,152.043 180.169,152.043 181.561 C 152.043 183.623,154.007 184.369,156.325 183.187 C 157.375 182.651,157.294 182.614,157.451 183.703 C 157.526 184.217,157.724 185.120,157.892 185.709 C 158.195 186.770,158.194 186.784,157.730 187.151 C 153.675 190.365,152.859 191.665,153.900 193.254 C 154.941 194.843,156.366 194.679,158.670 192.705 C 160.728 190.941,160.545 190.958,161.981 192.410 L 163.143 193.583 162.256 194.724 C 159.596 198.146,159.327 199.579,161.140 200.684 C 162.581 201.562,163.686 201.057,165.279 198.791 C 167.084 196.224,166.891 196.274,168.923 197.855 C 173.212 201.191,176.179 204.878,181.567 213.567 C 186.193 221.027,190.507 224.094,198.639 225.708 C 211.651 228.289,219.017 224.366,227.486 210.340 C 231.584 203.554,233.737 200.641,236.277 198.448 C 238.182 196.803,237.750 196.665,241.178 200.014 C 244.835 203.586,245.188 203.775,246.720 202.983 C 249.065 201.770,248.288 200.071,243.142 195.158 L 241.577 193.664 242.453 192.647 C 243.561 191.359,243.333 191.310,246.203 193.468 C 249.990 196.316,251.286 196.485,252.219 194.252 C 252.872 192.689,252.496 192.141,248.941 189.478 C 247.587 188.464,246.410 187.572,246.325 187.498 C 246.240 187.423,246.445 186.675,246.781 185.836 C 247.117 184.997,247.534 183.653,247.709 182.850 C 248.081 181.136,247.923 181.179,250.171 182.176 C 253.177 183.511,254.850 182.886,254.850 180.429 C 254.850 179.166,254.237 178.642,251.237 177.339 L 248.603 176.195 248.493 173.523 C 248.433 172.054,248.226 169.017,248.034 166.775 L 247.684 162.699 249.350 160.965 C 253.581 156.564,255.229 154.377,256.719 151.189 C 259.947 144.284,260.083 137.469,256.992 137.469 C 256.683 137.469,255.786 137.296,255.000 137.083 C 251.663 136.183,248.093 136.105,241.556 136.790 C 238.333 137.127,237.765 137.216,236.411 137.595 L 235.401 137.877 233.752 136.866 C 228.836 133.852,219.859 130.009,215.854 129.204 C 211.165 128.260,189.076 127.622,182.226 128.232 M205.154 133.135 C 213.769 133.510,215.841 133.870,220.526 135.810 C 226.119 138.125,230.502 140.378,233.029 142.235 C 234.611 143.397,235.440 143.509,236.772 142.739 C 238.516 141.733,251.090 140.582,251.585 141.384 C 252.512 142.883,245.459 147.652,237.882 150.650 C 234.647 151.930,233.430 153.251,233.971 154.893 C 234.502 156.500,236.329 157.076,237.779 156.092 C 238.170 155.827,239.378 155.252,240.464 154.814 C 244.988 152.990,248.622 151.066,251.310 149.073 C 253.010 147.813,253.027 147.834,251.977 149.914 C 250.964 151.920,249.410 153.856,245.606 157.853 C 244.184 159.348,243.829 159.858,243.346 161.103 L 242.773 162.580 243.204 167.504 C 243.727 173.478,243.746 174.584,243.322 174.422 C 241.151 173.588,233.807 172.437,228.704 172.129 C 225.553 171.939,225.402 171.911,224.880 171.411 C 223.125 169.729,220.318 171.849,220.282 174.883 C 220.263 176.514,218.965 179.226,217.954 179.749 C 216.566 180.467,213.924 180.258,208.272 178.986 C 203.941 178.011,201.617 178.065,198.227 179.220 C 192.795 181.070,187.073 179.810,185.270 176.366 C 185.100 176.041,184.635 175.111,184.237 174.298 C 183.341 172.469,183.095 172.187,182.140 171.901 C 180.225 171.327,170.778 172.749,164.648 174.534 C 163.511 174.865,162.398 175.177,162.174 175.226 C 161.772 175.314,161.769 175.273,161.781 169.243 L 161.792 163.171 161.267 161.946 C 160.834 160.938,160.329 160.314,158.395 158.401 C 154.918 154.962,150.581 149.698,150.934 149.345 C 150.975 149.304,151.529 149.615,152.166 150.036 C 156.728 153.051,164.207 156.376,165.773 156.085 C 167.127 155.833,168.045 154.270,167.610 152.954 C 167.298 152.007,166.962 151.772,164.746 150.950 C 160.144 149.243,155.137 146.482,152.569 144.235 C 151.222 143.057,150.274 142.386,149.581 142.121 C 148.650 141.766,154.582 139.654,156.974 139.490 C 159.402 139.323,163.907 140.437,166.895 141.941 C 168.952 142.977,169.598 142.850,171.310 141.073 C 172.748 139.579,179.325 133.993,180.169 133.549 C 181.309 132.948,195.461 132.713,205.154 133.135 M191.733 136.736 C 190.646 137.823,190.708 139.190,191.896 140.307 C 192.367 140.750,193.025 141.518,193.359 142.014 C 194.179 143.233,196.122 145.002,197.233 145.539 C 200.154 146.953,202.314 143.084,199.572 141.349 C 198.620 140.747,197.360 139.384,196.676 138.218 C 195.492 136.196,193.015 135.454,191.733 136.736 M210.438 136.422 C 207.721 137.032,204.037 140.303,204.037 142.107 C 204.037 144.916,206.331 145.225,209.170 142.798 C 210.407 141.740,211.208 141.203,211.683 141.114 C 212.763 140.911,213.688 139.870,213.688 138.858 C 213.688 137.023,212.322 135.999,210.438 136.422 M220.975 145.839 C 218.482 146.495,215.907 147.503,212.802 149.040 C 203.193 153.793,201.254 153.703,188.380 147.903 C 183.768 145.826,182.959 145.756,181.984 147.354 C 180.624 149.585,181.983 150.677,190.272 154.013 C 201.885 158.688,203.861 158.648,214.673 153.513 C 219.122 151.400,221.654 150.498,223.740 150.284 C 225.973 150.055,226.881 149.297,226.883 147.658 C 226.885 145.552,224.664 144.868,220.975 145.839 M304.206 146.351 C 294.779 147.346,288.475 155.337,290.160 164.156 C 293.196 180.037,314.475 177.781,318.686 161.131 C 319.867 156.463,318.993 153.538,315.321 149.870 C 312.240 146.792,309.187 145.825,304.206 146.351 M176.957 149.460 C 173.734 150.965,175.445 157.763,179.774 160.651 C 181.713 161.945,185.225 163.332,186.264 163.215 L 187.145 163.116 187.018 164.071 C 186.758 166.031,187.915 167.322,189.759 167.128 L 190.743 167.024 191.444 168.347 C 192.230 169.832,193.858 171.341,196.122 172.687 C 196.847 173.118,198.060 173.981,198.818 174.604 C 202.359 177.517,204.410 177.360,208.304 173.881 C 209.405 172.897,210.662 172.006,211.726 171.453 C 214.116 170.213,214.857 169.159,214.865 166.983 C 214.870 165.839,215.019 165.633,215.844 165.633 C 216.037 165.633,216.420 165.455,216.696 165.239 C 217.062 164.951,217.495 164.845,218.308 164.845 C 220.947 164.845,224.468 163.530,226.610 161.744 C 228.763 159.948,231.413 155.850,231.413 154.315 C 231.413 151.560,228.022 150.966,226.751 153.499 C 224.606 157.772,222.521 159.407,218.435 160.018 C 216.004 160.382,216.162 160.487,216.136 158.479 C 216.107 156.165,215.419 155.194,213.809 155.195 C 211.830 155.197,211.218 156.286,211.371 159.527 L 211.471 161.626 210.915 161.836 C 209.746 162.277,209.302 163.693,209.847 165.239 C 210.328 166.600,210.270 166.726,208.813 167.493 C 208.082 167.879,206.562 168.991,205.434 169.966 C 203.005 172.066,203.321 172.014,201.591 170.594 C 200.824 169.966,199.621 169.114,198.918 168.701 C 195.821 166.887,195.420 166.247,196.160 164.301 C 197.002 162.084,195.962 160.545,193.764 160.757 C 192.643 160.864,192.635 160.835,193.402 159.397 C 194.285 157.744,194.077 156.585,192.753 155.777 C 191.236 154.852,189.952 155.529,188.738 157.895 C 188.089 159.157,187.866 159.443,187.693 159.235 C 187.572 159.089,186.392 158.498,185.071 157.922 C 181.405 156.323,180.029 154.740,180.291 152.423 C 180.568 149.973,178.947 148.532,176.957 149.460 M309.837 151.704 C 312.482 152.937,314.894 156.642,314.032 158.149 C 313.874 158.427,313.748 159.179,313.744 159.876 C 313.721 163.930,309.410 168.609,304.551 169.853 C 295.030 172.290,290.976 158.688,299.475 152.822 C 301.921 151.133,307.355 150.547,309.837 151.704 M91.482 152.444 C 84.947 153.015,83.723 154.738,83.301 163.959 C 82.735 176.332,81.757 177.545,73.687 175.884 C 60.877 173.247,57.664 175.659,57.964 187.691 C 58.157 195.437,58.941 198.541,61.284 200.828 C 63.502 202.993,64.821 203.258,74.249 203.427 C 82.073 203.567,83.058 203.692,83.405 204.594 C 83.939 205.981,83.994 214.232,83.492 217.725 C 83.024 220.977,83.619 224.036,84.962 225.284 C 87.092 227.265,103.954 227.431,107.723 225.508 C 108.986 224.864,110.070 223.768,110.723 222.474 C 112.097 219.753,112.236 218.946,112.449 212.506 C 112.740 203.726,112.168 204.249,121.485 204.247 C 135.168 204.243,135.378 204.046,135.381 191.236 C 135.383 179.060,134.502 178.189,121.812 177.835 C 114.794 177.640,113.329 177.505,113.027 177.028 C 112.933 176.881,112.852 174.367,112.847 171.443 C 112.818 156.876,112.341 154.769,108.769 153.447 C 106.169 152.484,97.062 151.956,91.482 152.444 M103.594 157.381 C 105.957 157.605,106.998 157.840,107.313 158.219 C 107.695 158.680,107.921 162.953,107.924 169.791 C 107.930 182.468,107.739 182.304,122.994 182.769 C 129.456 182.966,129.454 182.965,129.872 183.847 C 130.559 185.294,130.809 195.267,130.233 198.214 C 130.014 199.333,129.870 199.352,121.123 199.397 L 113.343 199.437 112.316 199.964 C 108.666 201.840,107.537 205.096,107.532 213.766 C 107.530 217.622,106.974 220.050,105.886 220.953 C 104.449 222.145,91.331 222.516,88.536 221.443 C 88.174 221.304,88.127 219.456,88.435 217.430 C 88.704 215.660,88.699 207.191,88.428 205.212 C 87.659 199.594,85.424 198.517,74.565 198.535 C 63.414 198.552,63.283 198.442,62.840 188.654 C 62.429 179.596,63.160 178.849,71.000 180.311 C 77.405 181.506,78.646 181.607,80.612 181.095 C 85.903 179.717,87.731 175.674,88.137 164.451 C 88.378 157.813,88.494 157.555,91.285 157.437 C 92.043 157.405,93.683 157.302,94.929 157.207 C 97.413 157.018,100.404 157.078,103.594 157.381 M273.545 171.416 C 266.676 173.841,263.491 179.930,264.981 187.789 C 267.006 198.472,279.160 203.804,287.913 197.850 C 294.876 193.114,295.183 183.641,288.599 176.662 C 284.622 172.446,277.579 169.992,273.545 171.416 M325.357 172.612 C 309.751 175.912,312.201 196.942,328.677 201.108 C 333.345 202.289,336.270 201.415,339.938 197.744 C 343.293 194.385,344.269 190.514,343.192 184.835 C 341.604 176.457,333.485 170.893,325.357 172.612 M276.514 176.169 C 276.792 176.328,277.544 176.454,278.241 176.458 C 282.295 176.481,286.974 180.792,288.218 185.651 C 289.610 191.089,285.943 195.261,279.764 195.270 L 277.203 195.273 275.517 194.448 C 268.084 190.813,267.181 179.880,274.031 176.457 C 275.329 175.809,275.790 175.755,276.514 176.169 M232.836 177.360 C 236.683 177.829,240.387 178.546,242.615 179.255 L 243.281 179.466 243.165 180.578 C 243.041 181.764,242.336 184.263,242.081 184.421 C 241.997 184.473,241.180 184.063,240.265 183.509 C 236.620 181.303,230.863 178.805,226.736 177.638 C 225.842 177.386,225.111 177.094,225.111 176.989 C 225.111 176.747,229.557 176.960,232.836 177.360 M332.657 178.179 C 340.088 181.801,340.992 192.744,334.142 196.167 C 332.845 196.816,332.384 196.869,331.659 196.455 C 331.381 196.296,330.629 196.170,329.932 196.167 C 325.127 196.139,319.645 190.078,319.645 184.793 C 319.645 178.965,326.803 175.326,332.657 178.179 M171.738 178.492 C 169.593 179.479,167.280 180.758,164.139 182.695 C 162.420 183.755,162.336 183.756,162.194 182.718 C 161.897 180.539,161.890 180.563,162.974 180.152 C 165.363 179.247,172.244 177.507,173.609 177.462 C 173.825 177.455,172.983 177.919,171.738 178.492 M177.056 181.667 C 177.056 181.712,175.704 182.681,174.052 183.822 C 171.230 185.769,170.144 186.620,167.516 188.938 L 166.437 189.891 165.541 189.141 C 164.415 188.201,164.403 188.226,166.632 186.847 C 171.075 184.100,177.056 181.127,177.056 181.667 M184.540 184.317 C 184.540 187.641,185.570 191.370,186.819 192.565 C 188.050 193.743,190.322 193.140,190.727 191.527 C 190.839 191.079,190.918 191.046,191.617 191.158 C 192.194 191.250,192.600 191.172,193.260 190.843 C 193.960 190.493,194.218 190.449,194.544 190.624 C 195.126 190.935,196.277 190.893,196.969 190.535 C 198.409 189.791,202.902 189.344,206.835 189.555 L 209.505 189.698 209.604 190.580 C 209.835 192.626,212.038 193.480,213.629 192.142 C 214.126 191.723,214.234 191.700,214.568 191.945 C 215.241 192.437,216.747 192.297,217.440 191.678 C 218.184 191.013,219.399 186.945,219.399 185.118 C 219.399 184.800,219.440 184.540,219.490 184.540 C 219.785 184.540,224.290 186.624,225.659 187.395 C 227.969 188.695,234.072 193.329,234.072 193.783 C 234.072 193.862,233.407 194.508,232.595 195.220 C 230.098 197.408,227.273 201.262,223.208 208.030 C 216.284 219.555,211.450 222.534,201.733 221.261 C 194.081 220.259,189.799 217.690,186.321 212.014 C 180.621 202.710,176.893 197.964,172.674 194.637 C 170.167 192.661,170.243 192.961,171.886 191.535 C 173.907 189.779,183.877 182.794,184.392 182.773 C 184.473 182.770,184.540 183.465,184.540 184.317 M207.247 183.752 C 208.908 184.103,209.360 184.267,209.315 184.504 C 209.261 184.783,204.853 184.899,204.422 184.633 C 203.897 184.308,197.037 185.258,195.511 185.867 C 194.656 186.208,194.488 186.129,194.655 185.463 C 194.759 185.052,194.923 184.975,195.910 184.869 C 196.535 184.803,197.976 184.429,199.114 184.039 C 202.439 182.899,203.092 182.876,207.247 183.752 M233.087 185.210 C 235.674 186.417,239.293 188.489,239.283 188.758 C 239.278 188.875,238.970 189.316,238.597 189.738 L 237.920 190.505 237.336 190.033 C 237.015 189.774,235.706 188.713,234.427 187.675 C 233.149 186.637,231.393 185.315,230.527 184.737 C 229.660 184.158,228.863 183.605,228.754 183.507 C 228.443 183.226,230.930 184.203,233.087 185.210 M189.854 185.290 C 189.849 186.243,189.517 186.437,189.431 185.538 C 189.388 185.086,189.390 184.679,189.435 184.633 C 189.628 184.440,189.857 184.799,189.854 185.290 M214.476 185.426 C 214.476 185.697,214.387 185.918,214.279 185.918 C 214.170 185.918,214.082 185.697,214.082 185.426 C 214.082 185.155,214.170 184.934,214.279 184.934 C 214.387 184.934,214.476 185.155,214.476 185.426 M210.556 193.848 C 209.236 194.526,209.152 194.998,209.556 199.448 C 209.867 202.873,209.635 206.203,208.984 207.675 C 208.755 208.193,208.567 208.912,208.567 209.273 C 208.567 210.127,208.083 210.224,204.465 210.099 C 202.294 210.024,201.509 209.914,200.414 209.531 L 199.055 209.057 198.688 207.975 C 197.648 204.908,197.289 202.832,197.166 199.183 C 197.033 195.225,196.968 195.027,195.611 194.453 C 192.828 193.275,191.406 197.676,192.595 203.786 L 192.756 204.617 192.198 204.147 C 190.177 202.446,187.347 204.451,188.357 206.868 C 188.737 207.778,191.602 210.666,193.025 211.575 C 198.698 215.197,208.168 216.153,212.746 213.565 C 216.698 211.331,220.995 204.792,219.900 202.676 C 218.919 200.778,216.753 201.167,215.261 203.508 L 214.531 204.653 214.519 201.770 C 214.489 194.965,213.240 192.469,210.556 193.848 M304.185 199.588 C 297.004 200.979,291.945 205.884,290.078 213.266 C 289.197 216.751,289.376 218.445,290.949 221.467 C 295.180 229.601,307.418 230.576,314.525 223.346 C 323.917 213.790,316.682 197.168,304.185 199.588 M308.427 204.548 C 311.842 205.506,313.826 208.608,313.832 212.999 L 313.836 215.559 313.011 217.246 C 309.375 224.678,298.442 225.581,295.019 218.731 C 294.371 217.433,294.318 216.972,294.732 216.248 C 294.890 215.970,295.016 215.218,295.020 214.521 C 295.053 208.787,302.854 202.984,308.427 204.548 " stroke="none" fill="#ff00ff" fill-rule="evenodd"></path><path id="path1" d="M100.246 105.077 C 97.286 105.767,95.550 106.150,94.535 106.337 C 93.452 106.537,89.229 107.416,87.346 107.833 C 86.588 108.001,85.535 108.224,85.006 108.328 C 84.478 108.432,83.725 108.602,83.332 108.706 C 82.940 108.810,81.955 109.036,81.142 109.209 C 79.587 109.541,79.323 109.601,76.022 110.377 C 67.503 112.377,59.438 116.035,56.030 119.443 C 53.537 121.935,51.519 128.508,52.539 130.813 C 52.748 131.286,52.978 131.988,53.051 132.374 C 53.245 133.410,54.226 134.665,57.122 137.583 C 60.108 140.591,60.699 140.956,61.328 140.181 C 63.362 137.677,64.083 136.850,65.219 135.720 C 65.939 135.003,66.950 134.062,67.465 133.629 C 68.366 132.872,68.832 132.536,70.726 131.284 C 71.201 130.970,71.855 130.531,72.179 130.309 C 75.081 128.315,87.066 123.092,88.740 123.092 C 88.869 123.092,89.406 122.964,89.933 122.807 C 90.897 122.521,93.678 121.853,95.323 121.512 C 98.708 120.811,99.672 120.622,102.216 120.162 C 102.811 120.054,104.097 119.866,105.071 119.743 C 106.046 119.621,107.376 119.440,108.026 119.341 C 108.676 119.242,110.348 119.066,111.742 118.949 C 114.936 118.682,115.532 118.448,116.561 117.058 C 117.607 115.647,118.522 113.789,118.222 113.689 C 118.098 113.648,117.645 113.359,117.215 113.048 C 116.785 112.737,116.093 112.421,115.676 112.347 C 114.396 112.120,113.066 111.269,112.161 110.100 C 108.360 105.187,105.303 103.898,100.246 105.077 M284.687 107.308 C 284.113 107.662,282.693 109.224,281.562 110.747 C 280.820 111.746,281.087 113.697,282.361 116.593 C 283.339 118.815,285.734 120.278,289.427 120.908 C 294.571 121.785,297.876 122.454,300.246 123.099 C 301.113 123.335,302.132 123.595,302.511 123.678 C 302.890 123.760,304.042 124.070,305.071 124.366 C 306.100 124.663,307.341 125.019,307.829 125.158 C 313.486 126.771,317.070 128.008,322.304 130.154 C 323.211 130.525,323.890 130.870,326.933 132.501 C 328.031 133.090,329.798 134.134,330.650 134.698 C 331.596 135.324,332.620 136.016,334.023 136.977 C 336.715 138.821,337.067 139.014,337.776 139.029 C 338.528 139.046,339.933 138.296,341.901 136.829 C 342.496 136.385,343.294 135.790,343.673 135.509 C 344.052 135.227,344.602 134.844,344.895 134.659 C 345.422 134.324,345.424 134.315,345.117 133.581 C 344.941 133.160,344.686 131.482,344.527 129.690 C 343.705 120.424,342.706 119.496,329.788 116.001 C 328.922 115.766,327.858 115.456,327.425 115.311 C 325.243 114.582,321.478 113.672,317.479 112.906 C 315.985 112.620,313.067 112.023,311.866 111.757 C 311.108 111.590,310.089 111.378,309.601 111.287 C 308.791 111.135,306.052 110.592,303.594 110.096 C 303.053 109.986,301.369 109.667,299.852 109.387 C 298.336 109.106,296.209 108.698,295.126 108.479 C 294.042 108.261,292.935 108.038,292.664 107.986 C 286.483 106.779,285.660 106.709,284.687 107.308 M128.219 115.237 C 127.999 115.962,127.819 116.622,127.819 116.704 C 127.819 117.001,126.177 120.449,125.763 121.024 C 125.528 121.349,125.139 121.956,124.899 122.373 C 124.227 123.537,121.979 125.922,121.163 126.337 C 120.762 126.541,120.034 126.948,119.547 127.241 C 118.069 128.130,116.962 128.348,110.586 129.009 C 108.419 129.233,106.115 129.505,105.465 129.612 C 99.750 130.556,93.854 131.854,89.906 133.038 C 84.149 134.765,76.946 138.502,73.331 141.636 C 71.530 143.197,70.594 144.282,67.287 148.634 C 65.844 150.534,64.807 150.960,61.645 150.954 L 59.183 150.949 57.277 150.024 C 56.230 149.516,55.321 149.018,55.259 148.916 C 55.196 148.815,54.680 148.467,54.111 148.142 C 53.493 147.789,51.891 146.349,50.125 144.558 L 47.172 141.564 46.443 142.410 C 46.042 142.876,45.377 143.818,44.964 144.504 C 44.552 145.189,43.884 146.302,43.481 146.977 C 42.465 148.675,38.745 156.190,36.946 160.179 C 34.805 164.927,33.733 167.719,31.522 174.298 C 30.330 177.847,28.444 184.478,27.769 187.494 C 27.685 187.873,27.113 190.133,26.500 192.516 C 25.255 197.352,24.824 199.523,24.819 200.995 C 24.817 201.542,24.731 202.073,24.629 202.176 C 24.108 202.697,22.675 208.151,22.044 212.014 C 21.955 212.555,21.784 213.530,21.663 214.180 C 21.312 216.074,20.807 219.764,20.288 224.225 C 19.071 234.694,18.913 246.090,19.894 252.683 C 20.462 256.500,20.935 259.356,21.192 260.526 C 21.351 261.249,21.609 262.418,21.766 263.122 C 22.029 264.307,23.087 268.137,23.725 270.212 C 24.023 271.184,25.267 274.642,26.097 276.809 C 26.387 277.568,26.828 278.720,27.076 279.370 C 27.598 280.734,28.116 282.029,28.811 283.703 C 29.081 284.353,29.627 285.682,30.026 286.657 C 30.424 287.632,30.960 288.917,31.216 289.513 C 33.315 294.390,33.826 295.547,34.597 297.172 C 35.515 299.108,35.636 299.169,36.003 297.883 C 36.504 296.122,38.538 294.633,40.439 294.633 C 42.786 294.633,44.150 295.633,45.684 298.479 C 46.753 300.461,47.510 301.650,48.641 303.118 C 49.987 304.868,51.564 306.755,52.414 307.634 C 52.887 308.123,53.466 308.788,53.701 309.111 C 54.270 309.894,54.331 309.755,54.138 308.124 C 53.680 304.264,53.555 302.428,53.464 298.277 C 53.410 295.785,53.265 293.100,53.143 292.310 C 52.507 288.212,54.904 285.407,59.061 285.385 C 62.655 285.366,63.190 285.841,65.907 291.467 C 67.036 293.804,68.125 296.027,68.326 296.406 C 68.527 296.785,69.157 297.981,69.725 299.065 C 73.019 305.344,73.790 306.740,75.331 309.207 C 75.568 309.586,76.147 310.517,76.618 311.275 C 78.372 314.098,80.713 317.598,81.011 317.846 C 81.288 318.076,81.320 317.757,81.329 314.646 C 81.342 310.184,81.846 302.618,82.342 299.458 C 82.749 296.862,83.517 292.763,83.800 291.679 C 87.150 278.833,91.262 272.300,99.253 267.124 C 100.287 266.454,101.679 265.488,102.348 264.975 C 103.260 264.277,103.919 263.954,104.984 263.684 C 105.765 263.485,106.505 263.239,106.629 263.137 C 106.752 263.034,107.471 262.716,108.227 262.430 C 108.983 262.144,110.177 261.693,110.881 261.427 C 114.542 260.044,120.023 258.501,124.766 257.517 C 125.633 257.337,126.696 257.114,127.129 257.022 C 127.563 256.930,128.493 256.760,129.197 256.644 C 130.771 256.385,135.311 255.541,137.962 255.015 C 139.045 254.799,140.374 254.549,140.916 254.457 C 141.457 254.366,142.432 254.200,143.082 254.089 C 143.732 253.978,146.657 253.479,149.581 252.979 C 165.184 250.315,176.839 249.888,208.666 250.812 C 210.507 250.866,213.786 250.959,215.953 251.018 C 230.068 251.408,245.477 252.292,253.668 253.182 C 255.130 253.341,256.859 253.521,257.509 253.582 C 258.159 253.643,259.178 253.772,259.774 253.867 C 260.369 253.963,261.566 254.141,262.432 254.262 C 265.472 254.688,266.773 254.884,267.651 255.048 C 268.139 255.139,269.069 255.308,269.719 255.423 C 276.932 256.699,279.751 257.579,288.528 261.293 C 295.482 264.236,302.414 268.810,304.833 272.051 C 308.664 277.186,311.083 282.330,312.653 288.682 C 314.065 294.391,314.697 297.478,315.607 303.102 C 315.774 304.131,315.995 305.460,316.098 306.056 C 316.341 307.456,316.898 314.541,316.948 316.865 C 316.969 317.854,317.045 318.685,317.117 318.711 C 317.521 318.861,320.221 314.124,321.411 311.177 C 321.608 310.689,322.228 309.183,322.789 307.829 C 323.906 305.132,324.074 304.673,325.651 300.049 C 326.242 298.316,326.940 296.278,327.201 295.519 C 329.118 289.955,331.253 288.179,334.770 289.223 C 336.020 289.595,337.973 291.323,338.640 292.649 C 339.068 293.499,339.177 294.093,339.739 298.621 C 340.264 302.860,339.994 309.504,339.137 313.435 C 339.043 313.865,339.009 314.259,339.061 314.311 C 339.302 314.552,342.861 310.718,345.150 307.752 C 345.475 307.331,346.007 306.650,346.332 306.238 C 348.281 303.771,349.310 302.361,350.633 300.345 C 351.450 299.099,352.288 297.858,352.495 297.587 C 352.703 297.317,353.015 296.817,353.190 296.477 C 356.089 290.836,364.401 295.068,363.080 301.513 C 362.161 305.995,361.925 307.212,361.838 307.923 L 361.742 308.706 362.223 308.120 C 362.706 307.531,362.921 307.219,365.347 303.594 C 368.408 299.018,371.550 293.352,372.826 290.103 C 375.163 284.154,375.812 281.417,376.750 273.560 C 376.976 271.664,377.244 269.493,377.346 268.735 C 379.109 255.579,378.821 239.261,376.570 224.717 C 376.259 222.707,375.543 218.646,375.076 216.248 C 374.918 215.436,374.694 214.239,374.579 213.589 C 374.463 212.939,374.248 211.832,374.101 211.128 C 373.955 210.423,373.734 209.271,373.610 208.567 C 373.487 207.863,373.303 206.933,373.202 206.499 C 373.101 206.066,372.792 204.559,372.517 203.151 C 372.241 201.743,371.894 200.059,371.746 199.409 C 371.598 198.759,371.333 197.563,371.156 196.750 C 370.459 193.541,369.266 189.219,368.601 187.494 C 368.455 187.115,368.098 186.140,367.807 185.327 C 367.517 184.515,367.119 183.452,366.923 182.964 C 366.727 182.477,366.367 181.546,366.123 180.896 C 365.611 179.528,364.656 177.246,363.077 173.609 C 362.936 173.284,362.540 172.354,362.198 171.541 C 360.568 167.667,360.599 167.738,358.755 163.640 C 358.042 162.057,357.459 160.708,357.459 160.642 C 357.459 160.577,357.054 159.657,356.559 158.597 C 355.009 155.281,354.757 154.739,354.100 153.323 C 352.094 149.002,349.619 143.933,349.412 143.722 C 349.332 143.641,348.405 144.217,347.352 145.002 C 344.331 147.256,342.784 148.049,339.695 148.925 C 337.191 149.636,333.441 148.526,329.690 145.965 C 323.622 141.822,320.398 139.953,317.072 138.652 C 312.687 136.937,310.622 136.248,304.333 134.403 C 300.778 133.361,295.359 132.000,293.058 131.572 C 292.354 131.441,291.379 131.258,290.891 131.165 C 290.404 131.072,289.163 130.852,288.134 130.675 C 281.115 129.467,276.209 126.366,273.848 121.646 C 273.256 120.463,272.772 119.386,272.772 119.252 C 272.772 119.118,272.602 118.576,272.394 118.047 C 272.185 117.518,271.862 116.398,271.675 115.559 C 271.343 114.068,271.320 114.032,270.724 114.004 C 270.388 113.988,238.277 113.963,199.366 113.947 L 128.620 113.919 128.219 115.237 M203.151 128.214 C 212.430 128.538,215.829 128.930,219.104 130.053 C 222.892 131.352,230.621 134.947,233.752 136.866 L 235.401 137.877 236.411 137.595 C 237.765 137.216,238.333 137.127,241.556 136.790 C 248.093 136.105,251.663 136.183,255.000 137.083 C 255.786 137.296,256.683 137.469,256.992 137.469 C 260.083 137.469,259.947 144.284,256.719 151.189 C 255.229 154.377,253.581 156.564,249.350 160.965 L 247.684 162.699 248.034 166.775 C 248.226 169.017,248.433 172.054,248.493 173.523 L 248.603 176.195 251.237 177.339 C 254.237 178.642,254.850 179.166,254.850 180.429 C 254.850 182.886,253.177 183.511,250.171 182.176 C 247.923 181.179,248.081 181.136,247.709 182.850 C 247.534 183.653,247.117 184.997,246.781 185.836 C 246.445 186.675,246.240 187.423,246.325 187.498 C 246.410 187.572,247.587 188.464,248.941 189.478 C 252.496 192.141,252.872 192.689,252.219 194.252 C 251.286 196.485,249.990 196.316,246.203 193.468 C 243.333 191.310,243.561 191.359,242.453 192.647 L 241.577 193.664 243.142 195.158 C 248.288 200.071,249.065 201.770,246.720 202.983 C 245.188 203.775,244.835 203.586,241.178 200.014 C 237.750 196.665,238.182 196.803,236.277 198.448 C 233.737 200.641,231.584 203.554,227.486 210.340 C 219.017 224.366,211.651 228.289,198.639 225.708 C 190.507 224.094,186.193 221.027,181.567 213.567 C 176.179 204.878,173.212 201.191,168.923 197.855 C 166.891 196.274,167.084 196.224,165.279 198.791 C 163.686 201.057,162.581 201.562,161.140 200.684 C 159.327 199.579,159.596 198.146,162.256 194.724 L 163.143 193.583 161.981 192.410 C 160.545 190.958,160.728 190.941,158.670 192.705 C 156.366 194.679,154.941 194.843,153.900 193.254 C 152.859 191.665,153.675 190.365,157.730 187.151 C 158.194 186.784,158.195 186.770,157.892 185.709 C 157.724 185.120,157.526 184.217,157.451 183.703 C 157.294 182.614,157.375 182.651,156.325 183.187 C 154.007 184.369,152.043 183.623,152.043 181.561 C 152.043 180.169,152.446 179.714,154.658 178.606 C 157.207 177.329,156.961 178.194,156.964 170.503 L 156.967 163.852 154.936 161.837 C 147.327 154.289,144.675 149.677,144.665 143.968 C 144.659 140.803,144.818 140.236,145.935 139.441 C 146.262 139.208,146.529 138.852,146.529 138.648 C 146.529 137.853,147.377 137.268,149.809 136.386 C 156.328 134.022,159.000 134.004,165.812 136.282 L 168.210 137.083 170.811 134.917 C 172.242 133.725,174.210 132.076,175.185 131.251 C 177.853 128.996,178.954 128.524,182.226 128.232 C 184.846 127.999,196.704 127.988,203.151 128.214 M181.780 133.131 C 181.183 133.208,180.458 133.396,180.169 133.549 C 179.325 133.993,172.748 139.579,171.310 141.073 C 169.598 142.850,168.952 142.977,166.895 141.941 C 163.907 140.437,159.402 139.323,156.974 139.490 C 154.582 139.654,148.650 141.766,149.581 142.121 C 150.274 142.386,151.222 143.057,152.569 144.235 C 155.137 146.482,160.144 149.243,164.746 150.950 C 166.962 151.772,167.298 152.007,167.610 152.954 C 168.045 154.270,167.127 155.833,165.773 156.085 C 164.207 156.376,156.728 153.051,152.166 150.036 C 151.529 149.615,150.975 149.304,150.934 149.345 C 150.581 149.698,154.918 154.962,158.395 158.401 C 160.329 160.314,160.834 160.938,161.267 161.946 L 161.792 163.171 161.781 169.243 C 161.769 175.273,161.772 175.314,162.174 175.226 C 162.398 175.177,163.511 174.865,164.648 174.534 C 170.778 172.749,180.225 171.327,182.140 171.901 C 183.095 172.187,183.341 172.469,184.237 174.298 C 184.635 175.111,185.100 176.041,185.270 176.366 C 187.073 179.810,192.795 181.070,198.227 179.220 C 201.617 178.065,203.941 178.011,208.272 178.986 C 213.924 180.258,216.566 180.467,217.954 179.749 C 218.965 179.226,220.263 176.514,220.282 174.883 C 220.318 171.849,223.125 169.729,224.880 171.411 C 225.402 171.911,225.553 171.939,228.704 172.129 C 233.807 172.437,241.151 173.588,243.322 174.422 C 243.746 174.584,243.727 173.478,243.204 167.504 L 242.773 162.580 243.346 161.103 C 243.829 159.858,244.184 159.348,245.606 157.853 C 249.410 153.856,250.964 151.920,251.977 149.914 C 253.027 147.834,253.010 147.813,251.310 149.073 C 248.622 151.066,244.988 152.990,240.464 154.814 C 239.378 155.252,238.170 155.827,237.779 156.092 C 236.329 157.076,234.502 156.500,233.971 154.893 C 233.430 153.251,234.647 151.930,237.882 150.650 C 245.459 147.652,252.512 142.883,251.585 141.384 C 251.090 140.582,238.516 141.733,236.772 142.739 C 235.440 143.509,234.611 143.397,233.029 142.235 C 227.671 138.297,217.410 134.075,211.915 133.548 C 206.245 133.004,185.039 132.710,181.780 133.131 M195.317 136.766 C 195.774 137.069,196.386 137.723,196.676 138.218 C 197.360 139.384,198.620 140.747,199.572 141.349 C 202.314 143.084,200.154 146.953,197.233 145.539 C 196.122 145.002,194.179 143.233,193.359 142.014 C 193.025 141.518,192.367 140.750,191.896 140.307 C 189.334 137.898,192.337 134.790,195.317 136.766 M212.436 136.610 C 214.441 137.561,213.917 140.695,211.683 141.114 C 211.208 141.203,210.407 141.740,209.170 142.798 C 206.742 144.874,205.350 145.047,204.373 143.393 C 203.386 141.722,204.229 140.318,207.838 137.623 C 209.484 136.394,211.189 136.018,212.436 136.610 M226.216 146.189 C 227.879 148.003,226.683 149.982,223.740 150.284 C 221.654 150.498,219.122 151.400,214.673 153.513 C 203.861 158.648,201.885 158.688,190.272 154.013 C 181.983 150.677,180.624 149.585,181.984 147.354 C 182.959 145.756,183.768 145.826,188.380 147.903 C 201.254 153.703,203.193 153.793,212.802 149.040 C 219.884 145.536,224.683 144.516,226.216 146.189 M310.094 146.666 C 313.838 147.595,317.443 151.168,318.841 155.336 C 320.176 159.316,317.681 166.327,313.540 170.234 C 304.659 178.612,292.310 175.402,290.160 164.156 C 288.067 153.207,298.735 143.847,310.094 146.666 M179.386 149.616 C 180.111 150.076,180.441 151.100,180.291 152.423 C 180.029 154.740,181.405 156.323,185.071 157.922 C 186.392 158.498,187.572 159.089,187.693 159.235 C 187.866 159.443,188.089 159.157,188.738 157.895 C 189.952 155.529,191.236 154.852,192.753 155.777 C 194.077 156.585,194.285 157.744,193.402 159.397 C 192.635 160.835,192.643 160.864,193.764 160.757 C 195.962 160.545,197.002 162.084,196.160 164.301 C 195.420 166.247,195.821 166.887,198.918 168.701 C 199.621 169.114,200.824 169.966,201.591 170.594 C 203.321 172.014,203.005 172.066,205.434 169.966 C 206.562 168.991,208.082 167.879,208.813 167.493 C 210.270 166.726,210.328 166.600,209.847 165.239 C 209.302 163.693,209.746 162.277,210.915 161.836 L 211.471 161.626 211.371 159.527 C 211.218 156.286,211.830 155.197,213.809 155.195 C 215.419 155.194,216.107 156.165,216.136 158.479 C 216.162 160.487,216.004 160.382,218.435 160.018 C 222.521 159.407,224.606 157.772,226.751 153.499 C 228.022 150.966,231.413 151.560,231.413 154.315 C 231.413 155.850,228.763 159.948,226.610 161.744 C 224.468 163.530,220.947 164.845,218.308 164.845 C 217.495 164.845,217.062 164.951,216.696 165.239 C 216.420 165.455,216.037 165.633,215.844 165.633 C 215.019 165.633,214.870 165.839,214.865 166.983 C 214.857 169.159,214.116 170.213,211.726 171.453 C 210.662 172.006,209.405 172.897,208.304 173.881 C 204.410 177.360,202.359 177.517,198.818 174.604 C 198.060 173.981,196.847 173.118,196.122 172.687 C 193.858 171.341,192.230 169.832,191.444 168.347 L 190.743 167.024 189.759 167.128 C 187.915 167.322,186.758 166.031,187.018 164.071 L 187.145 163.116 186.264 163.215 C 183.657 163.509,178.526 160.296,176.510 157.108 C 173.900 152.980,176.013 147.477,179.386 149.616 M303.864 151.257 C 301.102 151.695,299.445 152.563,297.526 154.579 C 292.154 160.222,295.261 170.162,302.397 170.162 C 307.656 170.162,313.717 164.668,313.744 159.876 C 313.748 159.179,313.874 158.427,314.032 158.149 C 314.894 156.642,312.482 152.937,309.837 151.704 C 308.651 151.151,305.851 150.941,303.864 151.257 M105.662 152.712 C 112.360 153.777,112.815 154.963,112.847 171.443 C 112.852 174.367,112.933 176.881,113.027 177.028 C 113.329 177.505,114.794 177.640,121.812 177.835 C 134.502 178.189,135.383 179.060,135.381 191.236 C 135.378 204.046,135.168 204.243,121.485 204.247 C 112.168 204.249,112.740 203.726,112.449 212.506 C 112.236 218.946,112.097 219.753,110.723 222.474 C 110.070 223.768,108.986 224.864,107.723 225.508 C 103.954 227.431,87.092 227.265,84.962 225.284 C 83.619 224.036,83.024 220.977,83.492 217.725 C 83.994 214.232,83.939 205.981,83.405 204.594 C 83.058 203.692,82.073 203.567,74.249 203.427 C 64.821 203.258,63.502 202.993,61.284 200.828 C 58.941 198.541,58.157 195.437,57.964 187.691 C 57.664 175.659,60.877 173.247,73.687 175.884 C 81.757 177.545,82.735 176.332,83.301 163.959 C 83.799 153.088,85.010 152.166,98.572 152.335 C 102.000 152.378,104.344 152.503,105.662 152.712 M94.929 157.207 C 93.683 157.302,92.043 157.405,91.285 157.437 C 88.494 157.555,88.378 157.813,88.137 164.451 C 87.731 175.674,85.903 179.717,80.612 181.095 C 78.646 181.607,77.405 181.506,71.000 180.311 C 63.160 178.849,62.429 179.596,62.840 188.654 C 63.283 198.442,63.414 198.552,74.565 198.535 C 85.424 198.517,87.659 199.594,88.428 205.212 C 88.699 207.191,88.704 215.660,88.435 217.430 C 88.127 219.456,88.174 221.304,88.536 221.443 C 91.331 222.516,104.449 222.145,105.886 220.953 C 106.974 220.050,107.530 217.622,107.532 213.766 C 107.537 205.096,108.666 201.840,112.316 199.964 L 113.343 199.437 121.123 199.397 C 129.870 199.352,130.014 199.333,130.233 198.214 C 130.809 195.267,130.559 185.294,129.872 183.847 C 129.454 182.965,129.456 182.966,122.994 182.769 C 107.739 182.304,107.930 182.468,107.924 169.791 C 107.921 162.953,107.695 158.680,107.313 158.219 C 106.653 157.424,99.625 156.850,94.929 157.207 M279.496 171.516 C 293.119 174.961,298.199 190.854,287.913 197.850 C 279.160 203.804,267.006 198.472,264.981 187.789 C 263.904 182.109,264.881 178.237,268.235 174.883 C 271.916 171.205,274.825 170.335,279.496 171.516 M332.644 172.917 C 340.586 175.587,345.292 184.295,343.182 192.418 C 341.945 197.178,336.553 201.674,332.080 201.674 C 320.813 201.674,311.556 188.933,316.000 179.540 C 318.600 174.044,326.567 170.874,332.644 172.917 M274.031 176.457 C 270.899 178.022,269.515 180.329,269.538 183.949 C 269.570 189.151,271.455 192.462,275.517 194.448 L 277.203 195.273 279.764 195.270 C 285.943 195.261,289.610 191.089,288.218 185.651 C 286.974 180.792,282.295 176.481,278.241 176.458 C 277.544 176.454,276.792 176.328,276.514 176.169 C 275.790 175.755,275.329 175.809,274.031 176.457 M225.111 176.989 C 225.111 177.094,225.842 177.386,226.736 177.638 C 230.863 178.805,236.620 181.303,240.265 183.509 C 241.180 184.063,241.997 184.473,242.081 184.421 C 242.336 184.263,243.041 181.764,243.165 180.578 L 243.281 179.466 242.615 179.255 C 238.378 177.908,225.111 176.190,225.111 176.989 M325.310 177.625 C 321.893 178.748,319.645 181.591,319.645 184.793 C 319.645 190.078,325.127 196.139,329.932 196.167 C 330.629 196.170,331.381 196.296,331.659 196.455 C 333.175 197.321,336.846 194.920,338.134 192.221 C 338.786 190.854,338.861 187.096,338.278 184.952 C 336.738 179.287,330.676 175.862,325.310 177.625 M170.948 177.946 C 168.539 178.446,164.607 179.534,162.974 180.152 C 161.890 180.563,161.897 180.539,162.194 182.718 C 162.336 183.756,162.420 183.755,164.139 182.695 C 167.280 180.758,169.593 179.479,171.738 178.492 C 174.269 177.327,174.191 177.273,170.948 177.946 M174.590 182.535 C 171.571 183.852,164.880 187.684,164.710 188.193 C 164.674 188.303,165.047 188.729,165.541 189.141 L 166.437 189.891 167.516 188.938 C 170.144 186.620,171.230 185.769,174.052 183.822 C 177.917 181.154,177.953 181.069,174.590 182.535 M180.088 185.580 C 174.391 189.418,170.556 192.334,170.556 192.829 C 170.556 192.905,171.509 193.719,172.674 194.637 C 176.893 197.964,180.621 202.710,186.321 212.014 C 189.799 217.690,194.081 220.259,201.733 221.261 C 211.450 222.534,216.284 219.555,223.208 208.030 C 227.273 201.262,230.098 197.408,232.595 195.220 C 233.407 194.508,234.072 193.862,234.072 193.783 C 234.072 193.329,227.969 188.695,225.659 187.395 C 224.290 186.624,219.785 184.540,219.490 184.540 C 219.440 184.540,219.399 184.800,219.399 185.118 C 219.399 186.945,218.184 191.013,217.440 191.678 C 216.747 192.297,215.241 192.437,214.568 191.945 C 214.234 191.700,214.126 191.723,213.629 192.142 C 212.038 193.480,209.835 192.626,209.604 190.580 L 209.505 189.698 206.835 189.555 C 202.902 189.344,198.409 189.791,196.969 190.535 C 196.277 190.893,195.126 190.935,194.544 190.624 C 194.218 190.449,193.960 190.493,193.260 190.843 C 192.600 191.172,192.194 191.250,191.617 191.158 C 190.918 191.046,190.839 191.079,190.727 191.527 C 190.322 193.140,188.050 193.743,186.819 192.565 C 185.570 191.370,184.540 187.641,184.540 184.317 C 184.540 182.402,184.997 182.272,180.088 185.580 M202.068 183.191 C 201.581 183.268,200.251 183.649,199.114 184.039 C 197.976 184.429,196.535 184.803,195.910 184.869 C 194.923 184.975,194.759 185.052,194.655 185.463 C 194.488 186.129,194.656 186.208,195.511 185.867 C 197.037 185.258,203.897 184.308,204.422 184.633 C 204.853 184.899,209.261 184.783,209.315 184.504 C 209.421 183.953,203.756 182.927,202.068 183.191 M228.754 183.507 C 228.863 183.605,229.660 184.158,230.527 184.737 C 231.393 185.315,233.149 186.637,234.427 187.675 C 235.706 188.713,237.015 189.774,237.336 190.033 L 237.920 190.505 238.597 189.738 C 239.535 188.676,239.543 188.690,237.174 187.337 C 234.210 185.645,227.986 182.814,228.754 183.507 M189.435 184.633 C 189.390 184.679,189.388 185.086,189.431 185.538 C 189.484 186.099,189.563 186.274,189.680 186.090 C 190.016 185.560,189.799 184.270,189.435 184.633 M214.082 185.426 C 214.082 185.697,214.170 185.918,214.279 185.918 C 214.387 185.918,214.476 185.697,214.476 185.426 C 214.476 185.155,214.387 184.934,214.279 184.934 C 214.170 184.934,214.082 185.155,214.082 185.426 M212.697 193.851 C 213.999 194.510,214.496 196.672,214.519 201.770 L 214.531 204.653 215.261 203.508 C 216.753 201.167,218.919 200.778,219.900 202.676 C 220.995 204.792,216.698 211.331,212.746 213.565 C 208.168 216.153,198.698 215.197,193.025 211.575 C 191.602 210.666,188.737 207.778,188.357 206.868 C 187.347 204.451,190.177 202.446,192.198 204.147 L 192.756 204.617 192.595 203.786 C 191.406 197.676,192.828 193.275,195.611 194.453 C 196.968 195.027,197.033 195.225,197.166 199.183 C 197.289 202.832,197.648 204.908,198.688 207.975 L 199.055 209.057 200.414 209.531 C 201.509 209.914,202.294 210.024,204.465 210.099 C 208.083 210.224,208.567 210.127,208.567 209.273 C 208.567 208.912,208.755 208.193,208.984 207.675 C 209.635 206.203,209.867 202.873,209.556 199.448 C 209.416 197.910,209.296 196.320,209.289 195.915 C 209.258 194.226,211.161 193.074,212.697 193.851 M309.469 199.794 C 320.615 202.781,322.136 218.785,311.927 225.672 C 308.852 227.746,302.547 228.752,298.769 227.771 C 294.008 226.534,289.513 221.142,289.513 216.669 C 289.513 206.530,300.364 197.354,309.469 199.794 M303.943 204.613 C 299.161 205.981,295.043 210.554,295.020 214.521 C 295.016 215.218,294.890 215.970,294.732 216.248 C 293.865 217.763,296.267 221.435,298.966 222.723 C 300.974 223.681,305.697 223.369,308.395 222.101 C 309.998 221.348,312.071 219.166,313.011 217.246 L 313.836 215.559 313.832 212.999 C 313.824 206.713,309.479 203.030,303.943 204.613 " stroke="none" fill="#fbfbfb" fill-rule="evenodd"></path></g></svg>