 <svg  version="1.0" xmlns="http://www.w3.org/2000/svg"  width="900.000000pt" height="786.000000pt" viewBox="0 0 900.000000 786.000000"  preserveAspectRatio="xMidYMid meet">  <g transform="translate(0.000000,786.000000) scale(0.100000,-0.100000)" fill="#db2fff" stroke="none"> <path d="M4418 7590 c-61 -33 -83 -73 -83 -156 0 -54 4 -77 18 -91 9 -11 17 -26 17 -34 0 -8 7 -32 15 -54 33 -93 11 -283 -57 -480 -5 -16 -13 -44 -17 -60 -4 -17 -13 -40 -19 -52 -7 -12 -12 -30 -12 -41 0 -11 -7 -33 -15 -48 -8 -16 -15 -37 -15 -47 0 -10 -6 -39 -14 -65 -18 -61 -36 -151 -47 -232 -20 -149 -4 -393 31 -475 11 -26 19 -50 16 -52 -2 -2 -39 -8 -83 -12 -43 -4 -90 -14 -103 -21 -44 -23 -112 -79 -148 -120 l-34 -40 -587 0 -587 0 -54 56 c-71 73 -123 108 -195 133 -66 23 -176 28 -222 10 -15 -6 -50 -14 -78 -19 -27 -4 -70 -12 -95 -18 -25 -6 -81 -18 -125 -27 -44 -9 -103 -23 -131 -31 -28 -8 -60 -14 -71 -14 -28 0 -193 -47 -268 -77 -22 -8 -58 -22 -80 -30 -113 -43 -229 -117 -302 -195 -59 -62 -122 -220 -123 -308 -1 -78 -15 -113 -82 -200 -35 -47 -68 -92 -71 -100 -4 -8 -17 -31 -28 -50 -25 -40 -61 -112 -112 -220 -75 -161 -97 -210 -97 -220 0 -5 -6 -24 -14 -42 -43 -101 -104 -300 -151 -488 -9 -36 -22 -86 -30 -111 -8 -26 -15 -55 -15 -64 0 -10 -6 -41 -14 -69 -42 -147 -106 -489 -106 -567 0 -24 -7 -87 -15 -139 -30 -197 -17 -520 31 -760 25 -124 80 -310 120 -405 7 -16 19 -48 27 -70 19 -50 75 -189 93 -232 8 -18 21 -47 28 -65 25 -57 177 -362 197 -393 10 -16 23 -39 29 -50 6 -11 16 -29 23 -40 7 -11 27 -46 46 -78 65 -114 143 -162 214 -132 36 15 70 59 81 107 3 16 11 28 18 28 6 0 45 -33 88 -73 42 -41 91 -81 110 -90 121 -61 210 49 165 203 -22 75 -30 140 -18 140 6 0 34 -39 63 -87 117 -193 247 -339 338 -382 62 -29 84 -25 146 31 l48 42 -6 105 c-3 58 -9 144 -12 191 -11 150 18 424 63 580 41 147 77 214 158 296 57 57 89 80 176 122 59 29 111 52 117 52 6 0 26 6 44 14 58 24 183 55 376 91 45 8 117 22 160 30 534 100 754 116 1362 96 190 -6 426 -14 525 -16 189 -5 541 -29 685 -46 47 -6 121 -15 166 -19 45 -5 93 -14 108 -20 15 -5 41 -10 58 -10 41 0 189 -42 266 -76 17 -8 47 -20 65 -28 150 -63 268 -141 318 -209 36 -48 109 -199 109 -224 0 -9 6 -39 14 -67 8 -28 21 -85 29 -126 50 -249 50 -247 51 -547 l1 -293 28 -27 c23 -24 36 -28 83 -28 l56 0 65 70 c35 39 85 97 110 130 73 95 88 103 101 53 9 -37 81 -98 114 -98 41 0 212 106 291 179 15 14 30 24 34 21 4 -3 7 -26 7 -52 1 -41 6 -53 37 -84 42 -42 99 -54 139 -30 14 8 34 19 45 24 26 12 147 120 198 175 66 72 195 246 221 297 8 17 21 38 57 95 76 119 158 326 179 455 53 321 60 415 60 750 0 317 -10 451 -46 625 -8 39 -14 79 -14 90 0 11 -7 54 -16 95 -8 41 -22 108 -30 148 -60 306 -86 412 -121 507 -8 22 -21 56 -28 75 -20 56 -46 122 -63 160 -8 19 -20 49 -27 65 -13 34 -34 82 -59 140 -10 22 -24 54 -31 70 -43 99 -108 241 -156 341 -22 44 -39 85 -39 91 0 6 -7 16 -15 23 -8 7 -15 20 -15 29 0 9 -5 22 -11 28 -19 19 -79 164 -79 192 -2 73 -39 240 -65 289 -52 97 -153 164 -320 212 -16 5 -61 18 -100 30 -38 12 -86 25 -105 30 -19 5 -53 13 -75 19 -22 6 -76 18 -120 27 -136 28 -207 43 -277 59 -37 8 -77 15 -90 15 -13 0 -53 7 -90 15 -38 8 -98 22 -135 30 -38 8 -110 15 -161 15 -112 0 -142 -13 -222 -94 l-54 -56 -593 0 -593 0 -17 28 c-26 40 -99 109 -136 129 -19 10 -66 19 -117 23 -78 5 -85 7 -88 27 -2 12 -10 27 -18 33 -8 7 -14 18 -14 26 0 7 -13 42 -30 77 -28 62 -30 72 -30 194 0 124 9 189 47 338 26 99 74 258 89 293 8 18 14 42 14 53 0 11 5 30 12 42 6 12 15 40 19 62 4 22 12 58 18 80 6 22 11 120 11 217 1 140 -3 184 -15 207 -8 17 -15 39 -15 49 0 23 -55 139 -79 166 -47 54 -138 70 -203 36z m-2046 -2102 c27 -8 61 -34 110 -84 41 -42 82 -74 97 -77 15 -3 38 -14 50 -24 21 -17 22 -21 10 -44 -27 -47 -62 -79 -88 -79 -63 0 -316 -40 -451 -72 -25 -6 -61 -14 -80 -19 -107 -25 -158 -44 -295 -111 -110 -53 -215 -128 -294 -210 -42 -43 -80 -78 -85 -78 -14 0 -156 151 -156 166 0 8 -7 28 -15 45 -14 26 -14 36 4 107 27 111 42 135 126 198 39 30 165 94 185 94 5 0 24 6 42 14 75 31 171 58 268 75 25 4 63 13 85 18 22 6 74 18 115 26 167 35 236 49 265 57 44 12 63 11 107 -2z m4131 -52 c60 -14 140 -30 310 -61 45 -9 102 -21 127 -27 25 -6 65 -14 90 -18 155 -26 242 -48 480 -121 179 -55 213 -89 225 -226 3 -46 10 -97 15 -115 12 -39 6 -47 -74 -101 -71 -48 -102 -50 -155 -8 -21 17 -41 31 -44 31 -3 0 -27 15 -53 33 -99 66 -288 149 -439 191 -33 10 -80 23 -105 31 -133 39 -288 75 -320 75 -40 0 -143 32 -173 54 -34 25 -67 96 -67 143 0 39 38 96 79 118 33 18 30 18 104 1z m-415 -162 c14 -10 22 -25 22 -45 0 -31 49 -139 78 -174 59 -70 172 -128 282 -145 78 -12 198 -37 245 -50 22 -6 65 -18 95 -27 30 -8 69 -19 85 -25 17 -5 48 -14 70 -19 22 -6 44 -14 50 -20 5 -5 18 -9 30 -9 12 0 30 -7 41 -15 10 -8 24 -15 30 -15 13 0 87 -34 119 -53 11 -7 69 -44 130 -83 156 -100 216 -119 289 -89 73 30 127 60 154 84 42 38 45 34 147 -184 91 -196 104 -225 190 -430 36 -88 71 -168 76 -177 16 -30 65 -174 92 -268 23 -79 59 -243 92 -420 8 -47 22 -114 30 -150 9 -36 15 -76 15 -90 0 -13 7 -58 14 -100 31 -157 49 -409 43 -591 -7 -218 -40 -542 -69 -659 -6 -25 -14 -61 -18 -80 -4 -19 -13 -48 -20 -65 -45 -107 -77 -173 -101 -210 -10 -16 -23 -39 -29 -50 -6 -11 -18 -32 -28 -46 -9 -15 -30 -47 -46 -73 -36 -59 -52 -56 -46 10 10 109 6 148 -18 179 -30 38 -59 54 -98 55 -40 0 -71 -25 -120 -97 -67 -100 -184 -253 -230 -301 -50 -52 -70 -49 -54 8 15 54 12 269 -5 352 -13 59 -22 80 -50 107 -30 30 -41 35 -84 35 -36 0 -57 -6 -72 -20 -23 -20 -66 -106 -79 -159 -5 -16 -18 -55 -30 -85 -12 -30 -25 -70 -30 -89 -5 -18 -13 -38 -19 -44 -6 -6 -11 -17 -11 -25 0 -7 -23 -61 -51 -119 -47 -98 -53 -105 -65 -88 -8 10 -14 37 -14 58 0 110 -57 457 -95 578 -8 26 -15 54 -15 63 0 27 -81 201 -122 261 -65 96 -178 189 -298 245 -25 12 -52 25 -61 30 -23 12 -134 59 -194 82 -65 25 -149 49 -205 58 -25 4 -70 13 -100 18 -106 21 -196 33 -314 43 -65 5 -122 12 -127 15 -5 3 -104 9 -221 14 -117 6 -292 14 -388 20 -96 5 -415 10 -710 11 -555 2 -674 -4 -875 -47 -38 -8 -81 -14 -95 -14 -24 0 -105 -15 -240 -46 -36 -8 -74 -14 -85 -14 -19 0 -124 -20 -215 -42 -25 -6 -61 -14 -80 -19 -139 -32 -298 -96 -435 -173 -97 -53 -213 -177 -267 -282 -95 -187 -158 -485 -158 -741 0 -61 -4 -114 -9 -117 -8 -5 -26 16 -56 66 -5 9 -36 60 -68 113 -68 111 -116 202 -229 430 -42 84 -69 104 -140 105 -53 0 -60 -3 -94 -36 l-36 -37 5 -196 c3 -108 8 -208 12 -223 15 -59 -32 -22 -118 92 -23 30 -53 75 -66 100 -34 64 -67 89 -117 90 -45 0 -88 -26 -99 -60 -8 -25 -35 -26 -35 -2 0 10 -4 22 -9 27 -5 6 -26 51 -46 100 -20 50 -43 104 -50 120 -39 90 -59 140 -75 185 -5 14 -18 50 -30 80 -12 30 -25 69 -30 85 -5 17 -13 44 -19 60 -59 172 -100 499 -87 696 20 327 41 485 91 709 9 36 15 74 15 85 0 11 6 40 14 65 17 54 38 131 61 220 40 158 48 188 62 235 9 28 21 66 28 85 7 19 18 51 24 70 7 19 17 49 21 65 19 66 82 209 171 387 64 128 68 135 108 186 l33 43 77 -74 c103 -100 164 -131 256 -129 78 2 73 -1 185 131 119 142 324 247 595 306 44 9 108 23 142 31 34 8 82 14 106 14 71 0 229 29 274 51 23 11 60 41 82 67 46 53 101 153 101 181 0 11 7 27 16 35 14 14 173 16 1597 16 1416 0 1585 -2 1605 -16z"/> <path d="M4039 4961 c-44 -14 -65 -29 -165 -112 -75 -62 -102 -79 -118 -74 -12 3 -43 13 -71 22 -63 21 -226 23 -275 4 -19 -8 -51 -20 -71 -28 -44 -18 -89 -81 -96 -135 -6 -42 11 -127 35 -178 23 -48 87 -131 164 -215 36 -38 70 -80 77 -92 8 -15 9 -61 4 -155 -6 -117 -9 -134 -27 -150 -12 -9 -26 -17 -32 -18 -18 0 -54 -45 -54 -67 0 -31 46 -58 77 -44 37 17 41 14 48 -30 7 -40 5 -43 -44 -92 -55 -54 -61 -74 -33 -100 27 -24 52 -21 96 13 46 35 57 37 79 12 24 -26 21 -39 -13 -82 -16 -21 -30 -47 -30 -57 0 -19 38 -63 55 -63 5 0 30 23 56 51 55 60 62 60 135 -9 76 -73 221 -269 263 -357 42 -89 205 -202 326 -225 170 -32 203 -32 335 -1 95 22 219 131 302 264 24 38 51 80 60 95 10 15 21 34 25 42 36 77 169 230 199 230 4 0 38 -29 75 -65 70 -68 102 -80 133 -49 28 27 17 54 -49 122 -52 53 -65 72 -60 90 7 30 43 29 77 -3 70 -65 112 -73 138 -25 16 30 -3 62 -64 105 -62 45 -65 55 -38 127 23 61 25 63 55 43 16 -10 40 -15 64 -13 37 3 38 4 38 43 0 38 -2 40 -54 66 -29 15 -59 33 -67 41 -10 9 -15 55 -20 158 l-5 145 36 40 c125 136 135 150 189 277 8 21 18 74 22 117 8 99 -5 126 -63 134 -21 3 -67 10 -103 17 -55 10 -89 9 -215 -8 l-150 -19 -50 28 c-52 29 -119 62 -170 84 -141 61 -169 71 -250 85 -82 14 -737 24 -776 11z m807 -131 c40 -10 80 -23 90 -28 11 -5 35 -16 54 -25 83 -36 188 -90 233 -119 45 -28 50 -30 90 -18 23 6 60 15 82 20 52 12 242 13 249 1 18 -28 -121 -124 -271 -187 -115 -48 -138 -74 -109 -119 20 -30 45 -32 100 -6 167 78 205 97 238 118 68 42 76 26 22 -45 -19 -26 -59 -72 -87 -102 -83 -88 -92 -112 -78 -218 14 -109 14 -172 1 -172 -5 0 -29 4 -52 10 -89 21 -225 40 -281 40 -36 0 -67 6 -82 16 -14 9 -33 13 -44 9 -28 -8 -61 -66 -61 -104 0 -30 -23 -78 -45 -93 -18 -14 -130 -8 -186 8 -75 23 -224 23 -266 1 -45 -24 -148 -23 -205 3 -52 23 -68 39 -98 100 -13 25 -28 48 -34 52 -34 23 -242 2 -367 -38 -26 -7 -61 -14 -78 -14 l-31 0 0 119 c0 152 -5 173 -49 217 -67 69 -171 188 -171 196 0 15 30 8 68 -15 34 -22 58 -33 165 -80 56 -25 91 -22 112 9 15 23 15 28 1 48 -8 13 -29 28 -48 35 -18 7 -46 19 -61 27 -16 8 -32 14 -37 14 -14 0 -158 88 -188 115 -16 14 -37 32 -48 40 -18 13 -16 15 31 37 41 18 66 22 140 22 77 -1 101 -6 165 -33 41 -17 80 -31 86 -31 6 0 33 21 61 48 28 26 61 56 74 67 96 80 117 94 154 98 22 3 186 3 365 0 274 -4 336 -7 396 -23z m487 -984 c34 -8 74 -17 88 -20 32 -7 42 -27 33 -73 -7 -38 -28 -52 -53 -35 -9 6 -50 28 -91 47 -41 20 -82 40 -91 45 -9 5 -35 14 -58 20 -22 6 -41 15 -41 20 0 15 143 12 213 -4z m-1523 -26 c0 -6 -8 -14 -17 -17 -10 -4 -42 -22 -72 -40 -29 -19 -60 -32 -67 -29 -20 8 -18 56 4 62 9 3 31 12 47 19 36 16 105 19 105 5z m105 -90 c3 -6 -2 -13 -11 -17 -19 -7 -22 -9 -99 -78 -55 -49 -99 -60 -93 -23 3 20 34 45 85 67 11 5 24 15 28 20 3 6 14 11 24 11 10 0 24 7 31 15 14 17 26 19 35 5z m698 -7 c19 -11 3 -23 -30 -23 -21 0 -54 -4 -73 -8 -19 -5 -46 -5 -60 -2 -23 6 -22 8 14 15 22 4 51 14 65 21 22 12 60 10 84 -3z m-463 -88 c19 -91 35 -123 68 -132 17 -4 31 2 51 21 22 21 43 28 102 36 41 5 92 14 114 19 22 6 77 11 123 11 70 0 84 -3 89 -17 3 -10 15 -28 26 -40 l20 -23 -21 -23 c-19 -20 -21 -33 -20 -159 1 -118 -2 -141 -19 -170 -19 -32 -21 -33 -89 -32 -39 0 -81 7 -98 15 -41 21 -66 99 -66 209 0 97 -11 123 -54 123 -49 0 -61 -24 -61 -118 1 -85 1 -85 -25 -85 -34 0 -70 -26 -70 -51 0 -30 83 -112 142 -141 119 -58 126 -59 249 -59 133 0 168 12 230 78 49 52 99 135 99 163 0 51 -58 79 -82 40 -24 -38 -35 -22 -40 59 -3 56 -10 88 -26 113 -27 43 -15 58 45 58 49 0 62 15 78 95 9 44 13 50 37 53 32 4 131 -47 215 -112 95 -72 94 -69 36 -129 -67 -71 -99 -114 -172 -235 -115 -192 -179 -264 -278 -307 -46 -21 -71 -25 -152 -25 -196 0 -323 64 -417 210 -27 41 -51 80 -54 85 -6 12 -96 138 -125 175 -10 14 -54 59 -97 101 l-78 75 22 21 c36 31 146 113 153 113 3 0 27 16 53 35 25 20 52 34 60 33 10 -2 21 -30 32 -83z m1130 27 c75 -38 90 -53 79 -73 -13 -25 -18 -24 -59 12 -19 17 -45 37 -57 46 -48 33 -19 44 37 15z"/> <path d="M4301 4764 c-20 -26 -21 -28 -4 -54 48 -73 123 -140 159 -140 24 0 59 40 52 59 -1 6 -34 44 -72 85 -77 84 -101 93 -135 50z"/> <path d="M4695 4769 c-110 -58 -150 -145 -75 -164 20 -5 36 2 70 28 25 19 54 37 66 41 47 15 50 81 4 106 -24 13 -19 14 -65 -11z"/> <path d="M4911 4555 c-36 -14 -96 -40 -135 -58 -140 -67 -157 -72 -237 -72 -50 0 -91 7 -120 19 -24 10 -62 25 -84 34 -22 8 -67 27 -100 43 -33 15 -70 30 -82 34 -53 15 -96 -28 -70 -68 14 -22 30 -32 137 -82 30 -14 62 -29 70 -34 36 -21 171 -54 238 -58 60 -4 86 0 146 21 40 14 81 26 91 26 17 0 17 -1 0 -21 -13 -13 -20 -37 -21 -70 -1 -37 -7 -56 -25 -75 -20 -21 -22 -29 -12 -54 9 -25 8 -31 -11 -49 -12 -12 -27 -21 -32 -21 -5 0 -17 -8 -25 -17 -24 -27 -68 -63 -77 -62 -4 0 -41 24 -82 53 l-75 53 -1 49 c-1 70 -1 72 -31 86 -22 11 -28 20 -29 48 -1 67 -2 70 -35 70 -23 0 -39 -9 -62 -35 -36 -41 -40 -41 -99 -15 -71 31 -124 96 -104 129 3 5 2 21 -4 36 -9 23 -15 26 -47 23 -34 -3 -39 -7 -47 -39 -5 -20 -6 -57 -2 -82 11 -74 109 -161 204 -182 23 -5 36 -15 43 -33 15 -40 39 -62 66 -62 16 0 30 -10 43 -33 18 -30 110 -107 128 -107 5 0 17 -9 26 -19 52 -58 147 -64 201 -13 15 15 58 47 94 72 55 38 67 51 71 80 8 50 15 57 57 64 143 25 217 64 270 143 48 72 57 101 38 129 -15 23 -49 31 -71 16 -5 -4 -21 -25 -34 -47 -50 -86 -115 -129 -185 -123 -39 3 -40 4 -43 42 -2 27 -11 45 -28 58 -13 11 -24 23 -24 28 0 16 146 76 210 86 62 9 80 23 80 61 0 59 -68 69 -179 28z"/> <path d="M6790 4551 c-58 -10 -95 -27 -146 -68 -75 -59 -134 -175 -134 -263 0 -78 47 -188 101 -236 60 -53 93 -64 183 -64 77 0 94 4 151 31 86 42 147 108 196 209 30 62 33 201 5 245 -30 46 -77 95 -118 121 -41 26 -157 39 -238 25z m180 -121 c23 -12 51 -38 66 -61 25 -40 25 -44 14 -108 -19 -114 -99 -201 -212 -231 -144 -38 -263 125 -199 271 26 59 87 116 141 133 68 21 144 19 190 -4z"/> <path d="M2035 4420 c-67 -11 -95 -23 -123 -53 -30 -32 -38 -69 -52 -252 -14 -168 -30 -218 -76 -229 -31 -8 -113 0 -199 20 -33 8 -79 14 -101 14 -54 0 -127 -33 -150 -67 -69 -102 -52 -419 28 -513 44 -52 81 -60 305 -68 128 -5 186 -11 195 -20 13 -13 17 -168 9 -342 -6 -141 16 -154 278 -158 168 -3 200 -1 235 14 100 43 125 93 132 268 3 72 10 146 16 164 18 61 21 62 226 62 182 0 188 1 223 24 41 28 45 43 55 201 4 61 2 134 -5 186 -22 151 -65 178 -290 180 -58 0 -128 4 -156 7 l-50 7 -7 205 c-4 113 -11 223 -17 245 -20 79 -90 105 -296 110 -71 2 -152 0 -180 -5z m364 -136 c20 -25 21 -39 21 -235 0 -302 -1 -300 290 -309 l185 -5 17 -35 c24 -48 26 -290 3 -314 -21 -21 -110 -30 -239 -24 -210 10 -250 -31 -261 -263 -7 -138 -25 -213 -53 -224 -8 -3 -59 -11 -112 -17 -99 -12 -252 0 -273 21 -5 5 -4 51 3 107 18 145 1 305 -35 341 -45 44 -89 53 -269 53 -252 0 -264 11 -273 236 -4 99 -2 126 11 152 16 32 17 32 94 32 42 0 99 -7 126 -15 114 -35 217 -11 273 62 41 54 54 111 62 275 9 200 -6 188 227 188 l183 0 20 -26z"/> <path d="M6150 3996 c-14 -9 -31 -15 -39 -16 -21 0 -99 -68 -126 -109 -36 -55 -50 -145 -35 -228 17 -95 43 -144 106 -202 78 -71 128 -91 229 -91 99 0 150 19 221 84 144 129 99 368 -94 500 -82 56 -218 88 -262 62z m162 -131 c48 -20 113 -79 135 -122 67 -128 20 -249 -107 -282 -148 -38 -290 86 -290 253 0 57 23 101 78 147 35 28 41 30 94 24 32 -3 73 -12 90 -20z"/> <path d="M7282 3958 c-121 -39 -212 -154 -212 -269 0 -36 26 -119 56 -177 19 -40 96 -119 127 -133 12 -5 29 -13 37 -18 83 -49 198 -57 270 -20 104 54 160 148 160 268 0 55 -20 143 -43 187 -36 70 -124 138 -216 167 -68 22 -101 21 -179 -5z m196 -118 c86 -45 132 -126 132 -234 0 -57 -4 -69 -33 -108 -45 -59 -69 -69 -147 -62 -139 13 -241 120 -241 255 -1 68 20 105 80 144 48 32 152 35 209 5z"/> <path d="M6795 3351 c-98 -28 -202 -114 -242 -201 -30 -65 -53 -141 -53 -172 0 -48 58 -155 103 -192 71 -57 97 -66 193 -66 111 0 186 26 254 87 163 146 144 412 -36 524 -38 23 -165 35 -219 20z m150 -110 c126 -57 146 -251 36 -349 -52 -47 -81 -56 -180 -57 l-93 0 -45 49 c-44 49 -44 50 -40 111 8 110 76 202 179 243 66 26 92 26 143 3z"/> </g> </svg> 