<svg id="svg" version="1.1" xmlns="http://www.w3.org/2000/svg" xmlns:xlink="http://www.w3.org/1999/xlink" width="400" height="190.6362545018007" viewBox="0, 0, 400,190.6362545018007"><g id="svgg"><path id="path0" d="M132.577 11.706 C 129.864 12.156,126.993 14.136,125.864 16.336 L 125.517 17.012 124.626 15.763 C 121.657 11.602,121.875 11.639,99.784 11.634 L 82.409 11.630 82.294 12.059 C 82.097 12.791,82.162 54.977,82.360 55.291 C 82.551 55.594,90.476 55.835,91.849 55.579 L 92.469 55.464 92.469 48.425 L 92.469 41.385 105.863 41.328 L 119.256 41.270 120.272 40.840 C 121.517 40.313,123.158 39.122,123.872 38.227 C 124.165 37.860,124.469 37.560,124.547 37.560 C 124.626 37.560,124.690 41.582,124.690 46.498 L 124.690 55.437 125.119 55.552 C 125.873 55.754,134.222 55.686,134.617 55.475 C 134.971 55.285,134.986 55.006,134.986 48.516 L 134.986 41.754 146.711 41.754 L 158.437 41.754 158.437 48.597 L 158.437 55.440 158.871 55.549 C 160.017 55.837,178.437 55.664,178.738 55.363 C 179.002 55.098,179.029 53.572,178.984 41.451 C 178.955 33.963,178.994 27.836,179.070 27.836 C 179.146 27.836,180.016 28.801,181.003 29.981 C 181.990 31.161,183.601 33.081,184.583 34.247 C 187.722 37.978,190.995 41.870,196.617 48.558 C 199.633 52.145,202.290 55.214,202.522 55.376 C 202.957 55.680,211.308 55.830,212.344 55.552 L 212.772 55.437 212.821 38.634 L 212.869 21.830 220.210 21.830 L 227.550 21.830 227.598 38.513 C 227.642 53.928,227.670 55.214,227.968 55.434 C 228.428 55.774,237.159 55.774,237.619 55.434 C 237.917 55.214,237.945 53.928,237.989 38.513 L 238.036 21.830 245.377 21.830 L 252.717 21.830 252.766 38.634 L 252.814 55.437 253.242 55.552 C 253.995 55.754,262.344 55.686,262.739 55.475 C 263.095 55.284,263.108 54.988,263.108 46.990 L 263.108 38.704 275.310 38.704 L 287.512 38.704 287.512 47.072 L 287.512 55.440 287.956 55.551 C 288.630 55.721,347.820 55.684,348.091 55.515 C 348.270 55.402,348.339 53.687,348.377 48.417 L 348.427 41.468 354.147 41.422 C 357.293 41.396,359.956 41.439,360.065 41.517 C 360.174 41.595,362.594 44.447,365.443 47.855 C 368.292 51.263,370.918 54.395,371.278 54.814 L 371.934 55.577 376.291 55.636 C 378.688 55.668,380.927 55.643,381.268 55.579 L 381.888 55.464 381.886 53.423 L 381.884 51.382 379.074 48.044 C 377.528 46.208,375.684 44.028,374.976 43.201 C 373.600 41.591,373.489 41.373,374.046 41.373 C 377.556 41.373,381.596 37.200,382.103 33.049 C 382.534 29.530,382.226 19.361,381.644 17.872 C 380.387 14.655,377.537 12.257,374.454 11.821 C 373.081 11.627,288.755 11.325,288.012 11.512 L 287.516 11.636 287.466 19.975 L 287.417 28.313 275.310 28.313 L 263.203 28.313 263.153 20.131 C 263.119 14.478,263.038 11.871,262.892 11.695 C 262.596 11.338,203.064 11.312,202.707 11.668 C 202.534 11.842,202.479 15.172,202.479 25.491 C 202.479 33.667,202.408 39.085,202.303 39.085 C 202.127 39.085,200.782 37.530,195.224 30.900 C 193.604 28.967,191.515 26.479,190.581 25.371 C 189.648 24.262,187.167 21.296,185.067 18.780 C 182.968 16.263,180.700 13.582,180.027 12.822 L 178.803 11.439 174.069 11.439 C 171.465 11.439,169.200 11.492,169.034 11.555 C 168.773 11.655,168.732 12.187,168.729 15.511 C 168.727 18.061,168.664 19.256,168.541 19.066 C 168.440 18.908,168.355 18.620,168.354 18.426 C 168.332 15.760,164.377 12.328,160.625 11.719 C 158.392 11.356,134.750 11.346,132.577 11.706 M158.392 26.646 L 158.443 31.461 146.762 31.412 L 135.081 31.363 135.030 26.791 C 135.002 24.277,135.021 22.110,135.072 21.976 C 135.147 21.781,137.490 21.742,146.753 21.781 L 158.341 21.830 158.392 26.646 M338.132 33.556 L 338.132 45.281 323.165 45.281 L 308.198 45.281 308.146 41.994 L 308.094 38.706 320.253 38.657 L 332.412 38.608 332.412 33.556 L 332.412 28.503 320.305 28.408 L 308.198 28.313 308.146 25.270 C 308.117 23.596,308.136 22.116,308.188 21.980 C 308.264 21.780,311.124 21.742,323.207 21.781 L 338.132 21.830 338.132 33.556 M116.015 26.501 L 116.015 30.982 104.242 31.029 L 92.469 31.077 92.469 26.501 L 92.469 21.925 104.242 21.973 L 116.015 22.021 116.015 26.501 M371.878 26.501 L 371.878 30.982 360.153 30.982 L 348.427 30.982 348.376 26.696 C 348.347 24.339,348.366 22.301,348.418 22.167 C 348.493 21.971,350.841 21.933,360.195 21.972 L 371.878 22.021 371.878 26.501 M276.025 64.586 L 257.388 64.635 257.388 68.581 C 257.388 72.634,257.311 72.938,256.755 71.096 C 256.090 68.891,254.111 66.568,252.145 65.686 C 251.621 65.450,250.934 65.139,250.620 64.993 C 249.803 64.615,213.554 64.491,213.316 64.866 C 213.049 65.286,213.116 108.178,213.384 108.446 C 213.823 108.885,248.415 108.763,250.167 108.316 C 253.430 107.483,256.274 104.679,256.907 101.668 C 257.209 100.233,257.383 101.279,257.432 104.814 L 257.483 108.580 277.312 108.632 C 288.217 108.661,297.335 108.637,297.572 108.580 L 298.004 108.475 297.954 103.475 L 297.903 98.475 282.745 98.379 L 267.588 98.284 267.588 95.043 L 267.588 91.802 279.746 91.753 L 291.903 91.704 291.852 86.605 L 291.802 81.506 279.647 81.457 L 267.493 81.408 267.493 78.168 L 267.493 74.929 282.444 74.929 C 290.667 74.929,297.531 74.876,297.697 74.813 C 297.941 74.719,297.998 74.368,297.998 72.961 C 297.998 71.052,298.104 71.001,298.939 72.511 C 299.160 72.912,299.996 74.370,300.797 75.752 C 301.597 77.134,302.696 79.037,303.237 79.981 C 304.987 83.030,313.450 97.673,314.201 98.951 C 314.602 99.633,315.894 101.864,317.074 103.908 C 318.253 105.953,319.382 107.862,319.584 108.151 L 319.950 108.675 324.033 108.675 L 328.117 108.675 328.630 107.865 C 328.912 107.419,329.780 105.939,330.560 104.576 C 331.340 103.213,332.128 101.840,332.311 101.525 C 332.882 100.544,334.733 97.348,337.996 91.706 C 339.724 88.718,341.768 85.185,342.538 83.855 C 343.308 82.526,344.101 81.153,344.300 80.805 C 345.199 79.235,346.216 77.469,349.633 71.553 C 351.644 68.071,353.289 65.089,353.289 64.927 C 353.289 64.668,352.593 64.633,347.506 64.633 L 341.723 64.633 339.451 68.589 C 338.201 70.765,337.085 72.717,336.970 72.926 C 336.856 73.136,336.093 74.466,335.275 75.882 C 334.457 77.297,333.618 78.756,333.411 79.123 C 333.204 79.490,331.234 82.922,329.034 86.749 C 326.833 90.577,324.819 94.081,324.556 94.538 C 323.965 95.567,324.113 95.736,321.400 90.944 C 320.880 90.024,313.940 77.955,311.918 74.452 C 311.010 72.879,309.383 70.062,308.303 68.193 C 307.223 66.323,306.242 64.764,306.125 64.729 C 305.677 64.595,293.992 64.539,276.025 64.586 M246.954 86.702 L 246.997 98.379 235.224 98.379 L 223.451 98.379 223.451 86.653 L 223.451 74.926 235.181 74.975 L 246.911 75.024 246.954 86.702 " stroke="none" fill="#fafbf9" fill-rule="evenodd"></path><path id="path1" d="M102.898 24.543 C 102.819 26.356,102.641 27.749,102.321 29.042 C 101.761 31.306,101.346 31.098,106.275 31.034 L 110.252 30.982 110.529 29.933 C 110.714 29.231,110.816 27.751,110.837 25.453 L 110.867 22.021 106.940 21.970 L 103.012 21.918 102.898 24.543 M98.591 42.183 C 97.600 45.837,97.552 54.171,98.508 56.714 C 98.812 57.523,99.043 58.531,98.925 58.533 C 95.990 58.587,93.631 59.622,91.467 61.807 L 90.179 63.108 76.138 63.108 L 62.098 63.108 60.429 61.499 C 57.354 58.534,53.861 57.477,50.334 58.442 C 49.757 58.600,48.384 58.905,47.283 59.121 C 46.182 59.336,43.823 59.844,42.040 60.248 C 40.257 60.653,38.499 61.041,38.132 61.110 C 27.383 63.131,20.963 68.327,20.208 75.616 C 19.991 77.703,19.653 78.480,17.975 80.744 C 16.219 83.111,14.426 86.454,11.572 92.679 C 11.177 93.541,9.881 97.111,9.054 99.619 C 7.934 103.010,6.016 110.066,5.622 112.243 C 5.485 112.999,5.282 113.900,5.171 114.245 C 4.511 116.292,3.106 123.996,2.857 126.933 C 2.752 128.164,2.541 130.200,2.388 131.459 C 1.494 138.795,2.729 148.656,5.509 156.374 C 7.606 162.199,9.334 166.260,11.941 171.497 C 16.602 180.860,18.733 183.769,20.946 183.790 C 22.059 183.800,23.572 182.316,23.907 180.887 C 24.091 180.101,24.331 180.216,26.396 182.082 C 30.863 186.120,34.220 184.959,33.070 179.774 C 32.074 175.286,32.243 175.134,34.399 178.578 C 38.993 185.917,42.665 188.761,45.186 186.930 C 46.968 185.636,46.933 185.730,46.685 182.923 C 46.093 176.210,46.602 169.224,48.050 164.201 C 50.382 156.112,55.321 153.081,70.639 150.339 C 72.212 150.058,74.357 149.668,75.405 149.473 C 85.584 147.579,90.932 147.307,108.961 147.768 C 134.391 148.417,143.754 149.646,151.439 153.342 C 158.600 156.785,159.912 158.873,162.187 170.448 C 162.671 172.909,162.697 173.351,162.771 180.495 L 162.849 187.969 163.599 188.646 C 164.302 189.282,164.427 189.323,165.642 189.323 C 167.155 189.323,167.126 189.347,170.302 185.510 C 171.300 184.304,172.335 183.115,172.603 182.868 L 173.089 182.419 173.480 183.154 C 175.208 186.402,177.250 186.127,182.481 181.942 C 183.982 180.742,184.172 180.709,184.186 181.649 C 184.211 183.295,185.392 184.756,186.933 185.045 C 190.007 185.621,198.011 176.801,202.343 168.065 C 205.503 161.689,206.679 154.563,206.666 141.849 C 206.656 131.707,206.144 127.704,202.961 112.833 C 201.661 106.760,199.220 100.452,192.907 86.845 C 192.226 85.377,191.570 83.961,191.450 83.699 C 191.331 83.437,191.155 83.093,191.060 82.936 C 189.814 80.875,188.952 78.554,188.628 76.388 C 187.684 70.059,186.273 67.938,181.825 66.160 C 179.235 65.125,173.035 63.382,169.685 62.748 C 169.109 62.639,167.650 62.329,166.444 62.060 C 165.238 61.791,163.522 61.440,162.631 61.280 C 161.740 61.120,159.466 60.679,157.579 60.298 C 151.017 58.976,149.034 59.241,146.519 61.775 L 145.196 63.108 130.970 63.108 L 116.744 63.108 115.890 62.011 C 114.252 59.907,113.203 59.290,110.638 58.923 L 108.417 58.606 107.934 57.854 C 107.668 57.440,107.308 56.716,107.133 56.244 C 106.958 55.772,106.611 54.914,106.362 54.337 C 105.483 52.296,105.823 46.304,107.075 41.802 L 107.194 41.373 103.002 41.373 L 98.810 41.373 98.591 42.183 M54.831 63.928 C 55.136 64.088,55.643 64.471,55.958 64.779 C 57.313 66.106,58.866 67.356,59.478 67.612 C 61.075 68.281,61.173 68.848,59.914 70.139 L 59.009 71.068 57.388 71.203 C 55.443 71.364,49.954 72.282,47.569 72.845 C 40.550 74.500,36.265 76.725,31.547 81.163 C 29.376 83.204,29.764 83.246,27.446 80.718 C 25.417 78.503,25.100 77.432,25.736 74.939 C 26.486 72.001,28.414 70.032,31.863 68.681 C 35.962 67.075,36.582 66.897,42.326 65.673 C 45.317 65.036,47.376 64.584,50.048 63.976 C 52.335 63.456,53.898 63.441,54.831 63.928 M154.396 65.138 C 154.993 65.295,156.382 65.586,157.483 65.783 C 158.584 65.979,160.257 66.279,161.201 66.447 C 162.145 66.616,163.346 66.874,163.870 67.021 C 164.395 67.168,165.639 67.417,166.635 67.574 C 169.841 68.079,176.839 69.950,179.600 71.040 C 182.474 72.175,182.729 72.698,183.445 78.913 C 183.507 79.451,183.269 79.789,182.353 80.466 C 180.089 82.139,179.458 82.165,177.196 80.678 C 171.434 76.891,164.374 74.289,155.110 72.539 C 151.421 71.841,150.409 71.320,149.654 69.724 C 148.917 68.165,148.930 67.397,149.714 66.244 C 150.829 64.605,151.650 64.411,154.396 65.138 M143.408 68.699 C 143.773 68.880,143.879 69.108,144.248 70.497 C 145.321 74.536,148.197 76.788,153.437 77.688 C 155.986 78.127,158.757 78.783,161.487 79.596 C 162.798 79.987,164.256 80.416,164.728 80.551 C 165.200 80.686,166.015 80.969,166.540 81.181 C 167.064 81.392,168.051 81.790,168.732 82.065 C 170.147 82.635,170.846 83.025,174.124 85.073 C 179.092 88.176,180.498 88.231,184.499 85.476 C 185.050 85.096,185.615 84.842,185.774 84.903 C 186.518 85.189,194.227 102.458,196.063 107.952 C 197.081 110.999,197.650 113.248,198.564 117.827 C 201.796 134.022,202.165 138.993,201.039 151.192 C 200.233 159.928,198.842 164.284,194.935 170.305 C 193.054 173.204,193.041 173.202,193.041 170.037 C 193.041 167.404,192.741 166.650,191.420 165.967 C 189.938 165.201,189.018 165.785,186.749 168.932 C 183.260 173.770,180.931 176.443,180.552 176.045 C 180.467 175.955,180.483 175.367,180.589 174.738 C 180.873 173.045,180.654 167.173,180.258 165.874 C 179.753 164.218,178.624 163.203,177.289 163.204 C 175.277 163.205,174.780 163.902,172.951 169.282 C 172.344 171.064,171.760 172.635,171.651 172.772 C 171.543 172.910,171.398 173.258,171.329 173.545 C 171.148 174.301,169.344 177.994,169.027 178.258 C 168.622 178.594,168.423 178.047,168.274 176.180 C 167.283 163.792,164.372 155.837,159.324 151.722 C 156.465 149.392,148.963 146.081,144.916 145.363 C 140.117 144.512,137.718 144.146,135.653 143.949 C 134.395 143.830,132.850 143.653,132.221 143.556 C 131.591 143.459,129.361 143.289,127.264 143.177 C 125.167 143.066,122.121 142.889,120.496 142.785 C 109.713 142.091,84.468 142.391,79.695 143.269 C 78.279 143.529,76.263 143.883,75.214 144.054 C 74.166 144.226,72.622 144.522,71.783 144.713 C 70.944 144.904,69.528 145.158,68.637 145.278 C 67.745 145.398,66.330 145.658,65.491 145.857 C 64.652 146.055,62.989 146.446,61.794 146.726 C 47.593 150.049,41.615 158.047,41.067 174.452 C 41.013 176.077,40.926 177.614,40.873 177.867 L 40.778 178.327 40.395 177.944 C 39.669 177.218,36.018 170.910,33.821 166.584 C 31.285 161.592,31.015 161.276,29.163 161.142 C 27.955 161.055,27.243 161.353,26.325 162.330 L 25.869 162.816 25.998 167.433 C 26.070 169.973,26.180 172.377,26.244 172.775 C 26.536 174.601,24.343 172.314,21.573 167.902 C 20.293 165.865,17.590 165.635,16.743 167.492 C 16.515 167.993,15.825 168.157,15.825 167.710 C 15.825 167.568,15.513 166.777,15.133 165.953 C 12.593 160.457,9.751 152.797,8.877 149.094 C 6.850 140.505,7.120 130.433,9.707 118.112 C 9.906 117.169,10.160 115.925,10.274 115.348 C 10.387 114.771,10.739 113.398,11.055 112.297 C 11.371 111.196,11.761 109.738,11.920 109.056 C 13.021 104.351,15.996 95.391,17.168 93.250 C 17.260 93.083,18.070 91.461,18.968 89.646 C 20.694 86.157,21.166 85.339,22.068 84.282 L 22.628 83.626 24.650 85.452 C 28.970 89.353,31.308 89.501,34.332 86.066 C 38.888 80.891,46.613 77.568,55.842 76.812 C 62.043 76.304,64.179 74.892,66.162 69.991 L 66.671 68.732 68.750 68.624 C 72.048 68.453,143.053 68.524,143.408 68.699 M95.329 76.257 C 93.832 76.414,93.283 76.687,91.366 78.224 C 87.861 81.033,88.155 80.917,85.982 80.351 C 80.044 78.804,75.175 80.841,75.250 84.843 C 75.298 87.390,76.216 89.158,79.383 92.800 C 82.289 96.141,82.035 95.520,81.917 98.997 C 81.801 102.395,81.666 102.842,80.568 103.458 C 78.665 104.525,78.975 106.392,81.011 106.122 C 82.055 105.983,82.084 106.003,82.268 106.981 C 82.388 107.622,82.321 107.752,81.236 108.974 C 79.989 110.379,79.829 110.906,80.458 111.535 C 81.005 112.082,81.396 112.014,82.686 111.148 C 83.904 110.330,84.163 110.321,84.716 111.076 C 85.064 111.551,85.061 111.561,84.268 112.874 L 83.471 114.194 83.875 114.847 C 84.567 115.968,85.120 115.835,86.478 114.221 C 87.092 113.492,87.552 113.354,88.217 113.698 C 89.616 114.421,93.591 119.447,95.620 123.058 C 97.271 125.994,100.598 128.124,104.707 128.875 C 111.541 130.123,115.648 127.926,119.906 120.745 C 121.839 117.485,122.404 116.694,123.928 115.114 C 125.628 113.353,125.573 113.362,126.945 114.643 C 129.236 116.783,129.962 117.113,130.666 116.334 C 131.306 115.627,131.081 115.118,129.221 113.070 C 127.323 110.982,128.086 109.908,130.265 111.600 C 131.574 112.616,132.187 112.808,132.813 112.397 C 133.793 111.755,133.399 110.732,131.611 109.273 C 130.408 108.292,130.301 108.002,130.674 106.720 C 131.139 105.120,131.357 104.916,132.177 105.305 C 134.956 106.623,135.606 104.198,132.865 102.737 C 131.393 101.952,131.364 101.868,131.228 97.901 L 131.116 94.649 132.160 93.511 C 135.676 89.680,136.940 87.092,136.972 83.657 C 136.993 81.424,136.921 81.358,133.877 80.835 C 131.363 80.403,130.246 80.442,125.929 81.110 C 124.986 81.256,124.128 81.309,124.023 81.228 C 123.634 80.928,119.734 78.930,118.844 78.575 C 118.337 78.373,117.235 77.935,116.397 77.601 C 113.434 76.421,101.192 75.640,95.329 76.257 M113.666 79.478 C 115.421 79.905,118.523 81.246,121.118 82.701 C 124.245 84.453,123.887 84.359,125.585 83.883 C 127.242 83.418,132.184 83.138,132.683 83.480 C 133.359 83.944,130.684 86.034,127.641 87.419 C 124.949 88.645,124.795 88.723,124.166 89.179 C 123.246 89.846,123.581 91.516,124.634 91.516 C 125.174 91.516,131.076 88.764,132.151 88.011 C 134.159 86.605,133.146 88.618,130.243 91.803 C 128.368 93.859,128.186 94.407,128.470 97.133 C 128.920 101.445,129.074 101.252,125.718 100.570 C 124.366 100.296,122.359 100.022,121.258 99.963 C 119.906 99.890,118.994 99.738,118.449 99.495 C 117.245 98.958,116.242 99.881,115.938 101.805 C 115.551 104.255,114.565 104.656,110.772 103.908 C 108.388 103.438,105.566 103.409,103.996 103.837 C 100.521 104.786,98.202 103.949,96.665 101.191 C 96.243 100.432,95.904 100.056,95.568 99.971 C 94.530 99.711,90.681 100.076,88.311 100.661 C 87.020 100.979,85.626 101.239,85.212 101.239 L 84.461 101.239 84.457 98.427 C 84.451 94.601,84.421 94.509,82.520 92.416 C 78.361 87.837,78.341 87.653,82.213 89.606 C 85.213 91.119,86.402 91.472,87.054 91.044 C 88.214 90.284,87.900 89.378,86.217 88.624 C 82.636 87.019,80.746 85.926,78.890 84.386 C 77.972 83.624,77.981 83.578,79.171 83.025 C 80.928 82.206,83.949 82.329,86.414 83.317 C 88.784 84.268,88.347 84.365,90.519 82.407 C 92.594 80.535,93.627 79.708,94.471 79.243 C 95.423 78.718,111.341 78.913,113.666 79.478 M100.754 80.926 C 100.110 81.570,100.158 81.845,101.139 83.120 C 103.115 85.688,104.481 86.274,105.360 84.931 C 105.748 84.339,105.652 84.182,103.580 82.031 C 101.923 80.309,101.526 80.154,100.754 80.926 M110.204 80.881 C 107.690 82.125,106.587 84.452,108.298 84.899 C 108.609 84.980,110.578 83.909,111.996 82.887 C 112.560 82.480,112.480 81.453,111.842 80.904 C 111.210 80.360,111.254 80.361,110.204 80.881 M116.440 85.784 C 115.049 86.161,114.430 86.408,110.772 88.045 L 108.389 89.111 106.482 89.104 C 104.307 89.095,103.740 88.934,99.511 87.125 C 96.516 85.844,96.261 85.800,95.611 86.450 C 94.686 87.375,95.148 87.884,98.373 89.498 C 100.807 90.716,101.116 90.921,100.663 91.011 C 100.375 91.069,99.731 91.470,99.232 91.902 C 98.211 92.785,97.950 92.792,96.546 91.969 C 95.141 91.146,94.386 90.148,94.407 89.140 C 94.436 87.695,93.088 87.063,92.357 88.179 C 91.030 90.202,93.101 93.557,96.473 94.851 C 97.533 95.257,97.789 95.452,98.235 96.190 C 98.603 96.799,98.917 97.086,99.300 97.162 C 99.626 97.227,100.314 97.753,101.024 98.480 C 102.943 100.442,105.666 102.192,106.804 102.192 C 108.543 102.193,112.674 99.149,113.149 97.516 C 113.481 96.371,113.176 96.543,116.373 95.709 C 120.146 94.724,123.301 90.764,121.424 89.370 C 120.691 88.825,120.305 89.049,119.104 90.716 C 117.362 93.136,114.258 94.311,113.899 92.686 C 113.676 91.682,113.598 91.504,113.129 90.947 C 112.317 89.982,113.492 89.314,118.152 88.093 C 119.143 87.834,119.542 87.452,119.542 86.765 C 119.542 85.632,118.368 85.261,116.440 85.784 M160.476 86.195 C 154.480 87.072,151.655 95.148,155.824 99.492 C 158.296 102.067,163.391 101.832,166.340 99.006 C 172.539 93.066,168.835 84.973,160.476 86.195 M164.817 89.224 C 168.061 91.229,166.854 96.317,162.683 98.219 C 156.871 100.870,153.812 92.807,159.335 89.394 C 160.703 88.548,163.579 88.459,164.817 89.224 M45.629 89.427 C 43.014 89.944,42.683 90.579,42.025 96.337 C 41.304 102.653,41.290 102.666,36.130 101.815 C 30.122 100.824,28.408 102.222,28.408 108.113 C 28.408 114.333,29.809 116.331,34.414 116.678 C 35.777 116.781,37.999 116.948,39.352 117.050 C 40.705 117.152,41.906 117.330,42.021 117.445 C 42.158 117.582,42.264 119.429,42.326 122.773 C 42.451 129.470,42.127 129.137,48.748 129.372 C 56.045 129.631,57.183 128.832,57.685 123.104 C 58.232 116.862,57.724 117.377,63.458 117.246 C 69.787 117.101,69.880 117.034,70.186 112.420 C 70.714 104.469,69.542 102.992,62.662 102.936 C 61.387 102.926,59.871 102.862,59.295 102.793 L 58.246 102.669 58.111 98.856 C 57.866 91.974,57.593 90.806,56.050 90.046 C 54.581 89.322,48.107 88.937,45.629 89.427 M111.916 90.858 C 111.916 90.916,111.796 91.194,111.650 91.478 C 111.503 91.761,111.322 92.482,111.248 93.080 C 111.164 93.752,110.940 94.400,110.663 94.775 C 110.299 95.270,110.235 95.533,110.325 96.188 C 110.424 96.906,110.380 97.032,109.926 97.353 C 109.645 97.550,108.915 98.120,108.302 98.618 C 106.918 99.744,107.082 99.758,104.964 98.334 L 103.194 97.145 103.086 95.717 C 102.986 94.396,102.932 94.251,102.360 93.784 C 101.839 93.360,101.229 91.381,101.504 91.011 C 101.516 90.996,102.169 91.156,102.955 91.367 C 105.160 91.959,108.146 91.918,110.010 91.268 C 111.452 90.766,111.916 90.666,111.916 90.858 M54.994 92.660 C 55.354 93.273,55.394 93.731,55.488 98.284 C 55.636 105.510,55.729 105.608,62.440 105.622 C 67.550 105.633,67.491 105.586,67.641 109.754 C 67.823 114.790,68.017 114.609,62.281 114.765 C 56.061 114.935,55.876 115.098,55.373 120.849 C 55.059 124.447,54.720 125.891,54.092 126.302 C 53.416 126.745,48.868 127.087,46.946 126.840 C 44.695 126.550,44.734 126.610,44.910 123.744 C 45.430 115.288,44.968 114.680,37.750 114.309 C 31.354 113.980,31.295 113.931,31.121 108.758 C 30.962 104.025,31.574 103.557,36.567 104.595 C 42.258 105.779,44.168 103.838,44.621 96.412 C 44.776 93.868,44.940 92.916,45.293 92.499 C 45.664 92.061,47.122 91.913,50.704 91.951 L 54.602 91.992 54.994 92.660 M144.176 99.906 C 140.884 101.429,139.408 104.918,140.417 108.790 C 142.250 115.830,151.812 117.288,155.016 111.017 C 157.879 105.411,149.917 97.249,144.176 99.906 M172.947 100.206 C 166.870 101.841,165.364 108.292,169.965 112.978 C 175.725 118.844,183.947 114.827,182.480 106.864 C 181.661 102.420,176.949 99.130,172.947 100.206 M148.904 102.703 C 152.582 104.353,154.059 108.932,151.638 111.179 C 146.837 115.636,139.404 107.761,144.092 103.184 L 145.154 102.147 146.600 102.233 C 147.472 102.285,148.386 102.471,148.904 102.703 M126.278 103.319 C 128.375 103.849,128.958 104.785,127.960 106.018 L 127.607 106.454 124.957 105.121 C 123.499 104.388,121.899 103.675,121.401 103.538 C 118.424 102.713,123.060 102.506,126.278 103.319 M177.296 103.517 C 181.515 106.224,180.775 112.983,176.264 112.943 C 171.115 112.898,167.769 106.350,171.525 103.670 C 173.112 102.538,175.664 102.470,177.296 103.517 M88.706 103.813 C 88.639 104.095,85.946 105.607,85.404 105.668 C 85.008 105.712,84.929 105.630,84.880 105.122 C 84.822 104.526,85.227 104.208,86.749 103.653 C 87.219 103.481,88.755 103.607,88.706 103.813 M91.252 105.851 C 91.333 105.982,91.244 106.163,91.042 106.280 C 90.849 106.391,90.126 106.958,89.435 107.540 C 87.790 108.925,87.310 109.247,86.885 109.247 C 86.286 109.247,86.546 108.279,87.267 107.823 C 89.151 106.631,89.589 106.387,89.843 106.387 C 89.996 106.387,90.277 106.215,90.467 106.006 C 90.863 105.568,91.054 105.530,91.252 105.851 M108.101 106.099 C 108.396 106.454,108.342 106.472,106.122 106.743 C 103.998 107.001,103.664 106.826,105.255 106.286 C 106.746 105.780,107.780 105.712,108.101 106.099 M96.538 106.721 C 96.684 107.009,96.950 107.910,97.128 108.724 C 97.677 111.225,98.420 111.775,99.920 110.790 C 101.849 109.522,109.507 108.758,110.136 109.771 C 110.315 110.060,110.632 110.489,110.841 110.724 L 111.220 111.153 110.758 111.645 C 110.312 112.119,110.292 112.263,110.197 115.601 C 110.060 120.455,109.725 120.889,106.551 120.330 C 104.498 119.969,103.981 119.025,103.716 115.157 C 103.626 113.847,103.547 112.759,103.540 112.740 C 103.425 112.429,102.786 112.107,102.285 112.107 C 101.348 112.107,101.049 112.642,101.049 114.318 C 101.049 116.280,100.899 116.873,100.405 116.874 C 96.913 116.880,99.716 120.933,104.320 122.534 C 106.165 123.175,110.518 123.130,111.822 122.456 C 113.300 121.692,115.633 118.756,115.857 117.380 C 116.064 116.101,114.991 115.412,114.039 116.214 C 113.299 116.837,113.161 116.611,112.990 114.499 C 112.915 113.564,112.722 112.703,112.487 112.253 C 111.863 111.055,112.025 110.772,113.336 110.772 C 114.317 110.772,114.875 110.192,115.259 108.774 C 115.656 107.308,115.887 107.065,116.734 107.224 C 118.226 107.504,123.165 110.843,123.165 111.572 C 123.165 111.780,122.610 112.558,121.932 113.301 C 120.670 114.684,119.724 116.030,117.238 119.976 C 113.501 125.912,110.488 127.418,104.730 126.230 C 101.293 125.521,99.576 124.158,96.777 119.920 C 94.366 116.268,93.623 115.323,91.370 113.035 C 89.086 110.715,89.099 111.051,91.230 109.420 C 92.550 108.411,95.913 106.196,96.128 106.196 C 96.207 106.196,96.392 106.432,96.538 106.721 M124.581 107.783 C 125.816 108.470,126.149 108.839,125.966 109.316 C 125.769 109.828,125.412 109.684,124.065 108.552 C 122.215 106.997,122.474 106.611,124.581 107.783 M160.769 114.970 C 155.866 115.987,152.233 122.193,154.225 126.147 C 155.982 129.633,159.110 130.868,163.394 129.768 C 168.621 128.425,170.946 122.021,167.849 117.498 C 166.441 115.441,163.520 114.399,160.769 114.970 M164.349 117.874 C 167.636 119.846,167.255 125.014,163.680 126.935 C 163.271 127.154,162.428 127.265,160.724 127.322 L 158.341 127.401 157.317 126.190 L 156.292 124.978 156.399 123.738 C 156.788 119.231,161.193 115.982,164.349 117.874 " stroke="none" fill="#da2ef9" fill-rule="evenodd"></path></g></svg>